<svg id="Ñëîé_1" data-name="Ñëîé 1" xmlns="http://www.w3.org/2000/svg" xmlns:xlink="http://www.w3.org/1999/xlink" viewBox="0 0 2014.97 1994.42"><defs><style>.cls-1{fill:#e5f0f8;}.cls-2{fill:#40a87b;}.cls-18,.cls-20,.cls-23,.cls-26,.cls-3,.cls-31,.cls-32,.cls-34,.cls-35,.cls-38,.cls-43,.cls-44,.cls-45,.cls-46,.cls-47,.cls-48,.cls-49,.cls-5,.cls-50,.cls-51,.cls-52,.cls-53,.cls-54,.cls-55,.cls-56{fill:none;}.cls-3{stroke:#6adb6a;}.cls-20,.cls-23,.cls-26,.cls-3,.cls-31,.cls-32,.cls-35,.cls-38,.cls-43,.cls-44,.cls-46,.cls-48,.cls-49,.cls-5,.cls-50,.cls-51,.cls-52,.cls-54,.cls-55,.cls-56{stroke-miterlimit:10;}.cls-3,.cls-5{stroke-width:3.44px;}.cls-4{fill:#6adb6a;}.cls-5{stroke:#40a87b;}.cls-6{fill:#df941e;}.cls-7{fill:#bbdbf3;}.cls-8{fill:#fff;}.cls-9{fill:#93c3e6;}.cls-10{fill:#586773;}.cls-11{fill:#f74242;}.cls-12{clip-path:url(#clip-path);}.cls-13{fill:#fdae97;}.cls-14{fill:#322a28;}.cls-15{fill:#0775ef;}.cls-16{fill:#332b27;}.cls-17{fill:#e89780;}.cls-18,.cls-31,.cls-43,.cls-47,.cls-53{stroke:#e89780;}.cls-18,.cls-34,.cls-35,.cls-45,.cls-47,.cls-53{stroke-linecap:round;}.cls-18,.cls-34,.cls-45,.cls-47,.cls-53{stroke-linejoin:round;}.cls-18{stroke-width:0.53px;}.cls-19{fill:#2c3447;}.cls-20,.cls-32,.cls-44,.cls-48{stroke:#2c3447;}.cls-20{stroke-width:0.79px;}.cls-21{fill:#088cfc;}.cls-22{fill:#f9e181;}.cls-23,.cls-26,.cls-34,.cls-38,.cls-45,.cls-46,.cls-49,.cls-50,.cls-55{stroke:#fff;}.cls-23{stroke-width:0.7px;}.cls-24{fill:#a5bbd6;}.cls-25{fill:#89a5c7;}.cls-26{stroke-width:1.03px;}.cls-27{clip-path:url(#clip-path-2);}.cls-28{clip-path:url(#clip-path-3);}.cls-29{fill:#2d628c;}.cls-30{fill:#e7888b;}.cls-31{stroke-width:0.63px;}.cls-32{stroke-width:0.79px;}.cls-33{fill:#403534;}.cls-34{stroke-width:0.42px;}.cls-35{stroke:#93acbf;stroke-width:17.26px;}.cls-36{fill:#93acbf;}.cls-37{fill:#f9ecb8;}.cls-38{stroke-width:1.11px;}.cls-39{clip-path:url(#clip-path-4);}.cls-40{fill:#f2bb16;}.cls-41{fill:#e6f1ff;}.cls-42{fill:#2ec6fc;}.cls-43{stroke-width:0.75px;}.cls-44{stroke-width:0.94px;}.cls-45{stroke-width:0.5px;}.cls-46{stroke-width:1.1px;}.cls-47{stroke-width:0.67px;}.cls-48{stroke-width:0.99px;}.cls-49{stroke-width:0.88px;}.cls-50{stroke-width:1.29px;}.cls-51,.cls-56{stroke:#088cfc;}.cls-51{stroke-width:1.67px;}.cls-52,.cls-54{stroke:#332b27;}.cls-52{stroke-width:1.12px;}.cls-53{stroke-width:0.91px;}.cls-54{stroke-width:1.36px;}.cls-55{stroke-width:1.35px;}.cls-56{stroke-width:3.17px;}</style><clipPath id="clip-path" transform="translate(-199.51 -548.55)"><circle class="cls-1" cx="1281.66" cy="836.26" r="89.86" transform="translate(-215.93 1151.21) rotate(-45)"/></clipPath><clipPath id="clip-path-2" transform="translate(-199.51 -548.55)"><circle class="cls-1" cx="1281.66" cy="1412.83" r="89.86" transform="translate(-623.63 1320.08) rotate(-45)"/></clipPath><clipPath id="clip-path-3" transform="translate(-199.51 -548.55)"><circle class="cls-1" cx="1281.66" cy="1124.57" r="89.86" transform="translate(-419.8 1235.65) rotate(-45)"/></clipPath><clipPath id="clip-path-4" transform="translate(-199.51 -548.55)"><circle class="cls-1" cx="1281.66" cy="1698.98" r="89.86" transform="translate(-825.97 1403.89) rotate(-45)"/></clipPath></defs><path class="cls-1" d="M564.4,1997.29s-610-1548.47,509.39-1443.65c479.43,44.89,389.93,317.25,601.67,572.08,137.25,165.17,401.22,30,500.15,174.39s-17.33,555.9-58.11,697.18Z" transform="translate(-199.51 -548.55)"/><path class="cls-2" d="M446.56,1989.5s-30.58-122-106.83-159.66-157.62,13.89-137,68.1c17.82,46.75,91.09-10.73,148.09,11.87s66,79.69,66,79.69Z" transform="translate(-199.51 -548.55)"/><path class="cls-3" d="M217.51,1865.44s81.83-46.64,142.54-3.52S440,1989.5,440,1989.5" transform="translate(-199.51 -548.55)"/><line class="cls-3" x1="31.2" y1="1295.08" x2="50.24" y2="1303.38"/><line class="cls-3" x1="58.69" y1="1277.29" x2="96.62" y2="1295.08"/><line class="cls-3" x1="115.67" y1="1277.29" x2="135.4" y2="1300.6"/><line class="cls-3" x1="153.06" y1="1292.91" x2="161.93" y2="1314.37"/><line class="cls-3" x1="40.72" y1="1346.59" x2="69.94" y2="1298.23"/><line class="cls-3" x1="92.35" y1="1339.66" x2="119.16" y2="1296.61"/><line class="cls-3" x1="137.89" y1="1333.06" x2="178.19" y2="1328.05"/><line class="cls-3" x1="184.8" y1="1357.47" x2="207.9" y2="1365.06"/><path class="cls-4" d="M500.62,1989.86s21.58-409-173.76-356.27,152.38,273.12,152.08,356.27Z" transform="translate(-199.51 -548.55)"/><path class="cls-5" d="M492.72,1989.86s-6.82-213.68-146.06-319.33" transform="translate(-199.51 -548.55)"/><line class="cls-5" x1="208.22" y1="1183.94" x2="204.74" y2="1110.26"/><line class="cls-5" x1="98.97" y1="1153.41" x2="193.09" y2="1165.67"/><line class="cls-5" x1="135.58" y1="1216.29" x2="235.09" y2="1227.89"/><line class="cls-5" x1="185.33" y1="1278.61" x2="262.19" y2="1289.47"/><line class="cls-5" x1="269.57" y1="1220.38" x2="251.95" y2="1263.18"/><line class="cls-5" x1="240.62" y1="1150.92" x2="225.6" y2="1211.18"/><line class="cls-5" x1="286.01" y1="1291.84" x2="271.98" y2="1319.81"/><line class="cls-5" x1="225.6" y1="1336.38" x2="280.68" y2="1353.75"/><path class="cls-6" d="M1219.75,989.15a453.86,453.86,0,0,0-9.35-81c-.31-1.66-.66-3.27-1-4.88-43-195.81-213.1-344-419.36-353.46-7-.35-14.13-.5-21.27-.5a450.39,450.39,0,0,0-175.7,35.49q-16.74,7.1-32.72,15.43a451.86,451.86,0,0,0-231.1,298.31c-.61,2.67-1.21,5.33-1.76,8a454.11,454.11,0,0,0,24.18,265.83c67.56,163.79,228.88,279.11,417.1,279.11a449.27,449.27,0,0,0,142.87-23.12q17.26-5.74,33.83-12.82c121-51.53,214.81-154.39,254.18-281.17a451.83,451.83,0,0,0,20.21-134C1219.85,996.59,1219.85,992.87,1219.75,989.15Z" transform="translate(-199.51 -548.55)"/><path class="cls-7" d="M1219.85,1000.36A449.09,449.09,0,0,1,1119,1284.7l0,0a452.36,452.36,0,0,1-173.49,130.76q-16.59,7.08-33.83,12.82a449.27,449.27,0,0,1-142.87,23.12c-188.22,0-349.54-115.32-417.1-279.11a454.11,454.11,0,0,1-24.18-265.83c.55-2.67,1.15-5.33,1.76-8A451.86,451.86,0,0,1,560.34,600.2c3.31-1.7,6.68-3.41,10-5q11.16-5.5,22.67-10.41a450.39,450.39,0,0,1,175.7-35.49c7.14,0,14.23.15,21.27.5,206.26,9.5,376.38,157.65,419.36,353.46.35,1.61.7,3.22,1,4.88a453.86,453.86,0,0,1,9.35,81C1219.85,992.87,1219.85,996.59,1219.85,1000.36Z" transform="translate(-199.51 -548.55)"/><path class="cls-8" d="M1219.85,1000.36A449.09,449.09,0,0,1,1119,1284.7l0,0q-10.71,5.28-21.72,10c-11.06,4.73-22.32,9-33.88,12.82a451.78,451.78,0,0,1-398.7-56.4,439.82,439.82,0,0,1-37.3-28.81,451.75,451.75,0,0,1-123.92-170.77q-5-12.06-9.25-24.43a454.33,454.33,0,0,1-14.93-241.4c.55-2.67,1.15-5.33,1.71-8a451.44,451.44,0,0,1,54.34-133c1.86-3,3.77-6,5.68-9v-.05a448.15,448.15,0,0,1,29.41-40.47q11.16-5.5,22.67-10.41a450.39,450.39,0,0,1,175.7-35.49c7.14,0,14.23.15,21.27.5,206.26,9.5,376.38,157.65,419.36,353.46.35,1.61.7,3.22,1,4.88a453.86,453.86,0,0,1,9.35,81C1219.85,992.87,1219.85,996.59,1219.85,1000.36Z" transform="translate(-199.51 -548.55)"/><path class="cls-7" d="M1219.87,1000.36a450.68,450.68,0,0,1-20.25,134c-3.88-6-4.2-15.29-4.69-18.7-.7-4.91-7.73,7.73-8.78,3.75s3.86-23.08-.36-24.83-6.31,2.81-10.18,4.56-3.52,9.84-7.74,10.55-9.48,10.53-12.28,15.45-9.84,7.39-14.06,9.14-7.72,9.14-9.14,13.69-6.33,6.34-11.24,5.28.36-23.89.36-28.45-.7-7.74-4.56-11.94-3.89-19.69-4.92-22.5-3.17-5.27-4.94-8.08,3.17-6.67,2.83-11.23.34-8.44,5.25-11.94,2.47-5.64,3.17-9.14,6.33-4.92,8.08-6.69-.36-4.2,4.56-5.61,10.91-13.34,10.19-16.87,2.81-7.72,3.87-7.72,2.82-2.11,2.47-4.22-1.06-4.22,1.75-7,6.67-8.78,5.61-12.3.36-7.73,1.41-12.64,1.76-5.28,4.22-4.56,6,6.31,8.74,6.31,3.21-2.09,2.85-7.73-3.16-9.47-2.81-13.23,5.62-5,6.67-6.79,1.42-6.67,3.53-6,4.91,0,9.13.36-2.11,16.87,0,20.37,15.09,10.55,15.09,10.55,1.06-18.28-.69-25.64-2.81-28.11-1.75-24.25,2.8,12,7,19,3.87,15.11,5.28,23.53c1.25,7.59,5.35,18.28,6.17,20.37C1219.83,992.89,1219.87,996.62,1219.87,1000.36Z" transform="translate(-199.51 -548.55)"/><path class="cls-9" d="M594.77,1376.7c-9.35,1.86-36.09-7-50.57-18.3s-71.69-54.8-80.13-59-15.94-33.73-24.34-47.76-23-30-30.46-36.55-19.2-21.51-22.47-29-13.57-17.35-17.8-19.21-3.77-19.65-11.26-21.51c-4.47-1.11-5.73,14.32-6.08,27a454.11,454.11,0,0,1-24.18-265.83c4.37-5,10.15-8.1,24.08-10.41s2.46,8.4,0,14.53-2.21,10.76,0,17.8,17.89,9.35,26.34,11.71-1.41-9.85,0-18.75,17.34-2.82,21.52-1,15.48,0,20.16-.45,11.26-4.22,20.61-5.63,5.63,5.18,2.81,12.67-3.27,9.8-2.36,17.79,15.94,29.51,18.75,31.83,5.63,5.63,7.49,13.12,3.77,18.3,7.49,17.79,4.68,7.54,14.08,15.49a35.79,35.79,0,0,0,5.73,4.07q4.29,12.36,9.25,24.43A450.93,450.93,0,0,0,552.24,1140c-1.2,2-2.36,3.72-3.37,5.23-5.63,8.34-6.58,31-3.26,36.09s6.53,9.35,12.16,18.25,8.45,5.18,14,8.45,12.67,17.79,18.75,25.33,7,15.94-1.41,19.66-7.94,19.2-9.8,25.74,10.25,7,13.12,13.57,9.35,6.59,10.25,10.36-8.89,12.16-6.08,16.39,12.17,13.57,9.85,19.65,1.41,16.39,3.27,24.84S604.12,1374.79,594.77,1376.7Z" transform="translate(-199.51 -548.55)"/><path class="cls-7" d="M581.2,1054.91c-1.86,11.66-1.41,18.7-1,27.6s-6.53,16.39-10.76,26.69c-3.46,8.5-11.36,21.77-17.24,30.82a450.93,450.93,0,0,1-48.81-88.48q-5-12.06-9.25-24.43c5.43,3,8.49,1.66,12.06,2,4.68.45,9.81,11.21,14,18.25s11.71,9.85,15,11.71,7-4.17,14-8.39a147.6,147.6,0,0,1,17.34-8.9c7-3.32,7.49-9.4,13.57-9.85S583.06,1043.2,581.2,1054.91Z" transform="translate(-199.51 -548.55)"/><path class="cls-9" d="M541,635.7c-1.91,3-3.82,6-5.68,9a451.44,451.44,0,0,0-54.34,133c-.56,2.67-1.16,5.33-1.71,8a456.59,456.59,0,0,0,1.2,193.34c-2-2.41-4-4.88-6.08-7.54-7.49-9.85-17.79-21.06-21.67-31.37s1.06-15,2.42-26.24-1.36-12.67-2.26-15.94,5.88-28.75,4.67-29.51c-5.63-3.37-15.84,5.83-24.28,10.41s-17.55,2.11-20.36-3.52,5.28-9.45,8.8-22.12-5.28-8-9.45-7.74-7.39,4.57-14.08,11.61,1.06,18.95-2.11,26.34-6-4.22-9.85-11.26.35-7.69,1.75-19.3-1.05-19.31-6.33-30.21-8.75,20.71-17.19,22.82-9.5,12.32-14.43,20.76-3.82,15.79-5.93,22.82c-1.91,6.24-7.49,10.56-14.83,9.45a448.71,448.71,0,0,1,54.34-133c13.83-1.61,19.61-10.91,23.38-11.16s7.24-.71,16.84-3.77,2.56-5.58,3.72-8.65,12-4.22,16.89-6.08,1.86-6.09,3-15,4.22-3.77,10.1-7,7.24-5.83,6.08-7.49-8.19,2.81-9.85.7,2.56-10.3-.2-8.9-5.88,7-5.88,12.42-5.13,7.94-9.35,15.94-6.14,5.83-12.17,7-8-1-11.51-1.2,3.32-7.49,9.15-14.53S433,704.77,440,699.34s6.28-9.15,12.61-14.73,14.73-13.37,26-19S492.67,667,492.67,667s5.13,3.77,16.84-9.36,5.63-5.63,16.39-10.75C535.5,642.33,536.56,640.32,541,635.7Z" transform="translate(-199.51 -548.55)"/><path class="cls-7" d="M1007,928.43c.45,3.26-9.4,5.58-20.16-2.62s-16.39-7.24-24.33-12.36-11.72-8-18.75-20.16-5.18-16.39-8.45-25.29-10.76-4.22-14.08,1.41-14.47,3.72-22,1.41-7.44-10.31-21.06-17.35-17.79-1.86-28.55-1-21.12,11.71-29.06,15.93-5.63,7.49-6.08,14.53-12.67,25.29-19.21,31.37-1,7.49,4.68,17.8,5.18,6.58,3.77,13.57-4.68,12.67-5.18,22.52-4.22,15.94-9.35,15.94-13.12-10.36-17.8-20.16-13.62-12.67-28.1-20.61-9.85-10.76-16.89-23.43-11.71-16.89-13.57-11.26-8.9,0-21.57-2.31-13.57-9.4-24.33-15.94-17.8,3.27-24.38,5.28S626.59,904,619,907.31s-19.1,1-26.54,2.37-19.71.45-29.06,0-12.67-7.95-22-13.93-11.71.8-15.48,4.57,1.86,6.09,9.25,13.13,10.46,5.12,18,12.16,14.47,12.17,20.61,5.13,9.8-5.63,17.79-5.13,18.75-2.81,23.88-2.36,4.68,15.93-.45,24.83,2.31,21.52,0,23.88-10.31,3.32-15.48,7.49-8,9.85-17.35,13.12-7.49,9.4-9.35,15.94-14.07,11.71-24.83,17.79-13.12,17.35-20.16,17.8-4.68-11.21-7.94-22.47-17.35-9.35-23.88-21.27c-4.83-8.69-10.06-14.83-15.49-21.31a456.59,456.59,0,0,1-1.2-193.34c.55-2.67,1.15-5.33,1.71-8a451.44,451.44,0,0,1,54.34-133c1.86-3,3.77-6,5.68-9v-.05c.55-.61,1.16-1.21,1.81-1.86,6.08-6.09,12.17-5.63,21.52-5.63s14.53-1.86,23-6.09S585.42,609.4,591,601s21.57-5.18,26.69-9.4,8.9-7.49,19.26-10.76,15.43-6.08,21.51-11.26c2.37-2,6.09-5.53,9.76-9.05a450.81,450.81,0,0,1,100.54-11.26c7.14,0,14.23.15,21.27.5,5.12,2.92,9.75,5.13,12.26,5.28,7.94.45,12.17,1.91,24.84,6.13s12.16,7,16.84,11.21,6.53-.45,18.75-3.77,8.9,7.54,24.83,9.4,29,16.85,38.86,23,12.17,6.53,7.94,14-2.76,8.9.51,16.9,10.76,5.12,14.53,6.28,11.21,6.33,17.29,9.6,10.3,12.22,7,16.39-14,.5-15-7.49-10.31-7-18.25-15.38-8.45,2.26-11.72,6.93-6.08,2.82-12.21-4.17-5.58,1-9.35,7,1.86,9.85,7.49,14.53,7-.91,9.85-2.77,8.4-7,7,0,1.86,13.12,7,10.26,6.58,3.77,12.67,10.81,12.61,8.39,23.42,12.61,6.54,9.41,10.31,19.71,6.53,20.61,6.08,29.51.91,13.57-6.08,22.92-8,10.31-20.16,15-4.68.51-9.85,2.82-4.18,7.49-5.58,17.34,3.72,8,11.21,14.08,15.48,4.67,25.79,7.94,9.8,6.54,13.57,14.08,4.67,10.76.45,16.84-1.86,12.67-1.41,22-7,7.94-8.89-4.68-6.54-3.77-13.58-3.77-10.3-5.63-18.75-7.94-7,1.41-12.16,8.45,4.22,15.43,7,22.92,11.72,6.58,23.88,10.3,9.86,2.37,16.89,10.81S1006.49,925.11,1007,928.43Z" transform="translate(-199.51 -548.55)"/><path class="cls-9" d="M666,1292.59c-5.38,1.66-15.94-4-24.84-8.64s-2.56-6.79-3-16.64-5.89-10.31-11-15-8.7-10-12-15c-2.76-4.17,3-9.5,12.22-15a439.82,439.82,0,0,0,37.3,28.81,33.19,33.19,0,0,1,1.31,6.13c.95,8.4,6.78,15.23,8,23.88S671.33,1291,666,1292.59Z" transform="translate(-199.51 -548.55)"/><path class="cls-7" d="M664.65,1251.12a439.82,439.82,0,0,1-37.3-28.81c1.71-1,3.47-2,5.38-3,12.16-6.54-4.28-23.13,5.38-22.47,6.78.45,7.49,4,11,9.09s7.24,8,10.06,13.63,1.15,8.19,1.41,15.88C660.78,1241.16,663.09,1245.74,664.65,1251.12Z" transform="translate(-199.51 -548.55)"/><path class="cls-7" d="M934.26,934.38c-2.76-7.88,15.45-9.48,22.48-4.92s11.59,10.19,21.43,11.95,10.89,1.4,16.86,0,14.05-8.43,15.11-1.41-2.46,11.6,3.51,13.7,13,2.11,17.92,4.57,3.86,2.11,5.27,7.73,4.92,15.46-.7,15.46-10.54-3.52-22.14-4.92-14-1-22.13-8.78.35-5.62-14-10.19-16.87-9.84-25-14.76S936.71,941.41,934.26,934.38Z" transform="translate(-199.51 -548.55)"/><path class="cls-7" d="M1044.92,981.46c3.15,6.7,10.19-2.81,16.51-4.57s4.92-.35,12.3-1.76,9.13-9.83,15.1-9.13-3.86-7-10.18-4.92-7,2.11-15.81,5.27S1042.11,975.49,1044.92,981.46Z" transform="translate(-199.51 -548.55)"/><path class="cls-7" d="M1210.41,908.11c-2.62-1.24-4.91-2.47-5.29-3.13-.94-1.63-4.22-9.83-7.27-12.16s-1.63,6.31-.22,11.46.94,7.27-1.65,5.86-4-.94-6.79,1.65-4.92,2.09-3.5-8.9-2.93-10.61-10.08-13.6c-4.18-1.73-9.13-1.17-14-1.87s-8.68-4.22-11.49-8.9,3-9.37,7.27-9.83,2.35,7.26,10.53,11.7,1.41-5.15,2.11-13.57,7.75-2.11,15.71-1.18,7.48,9.14,10,14.51,4.7,8.45,6.33,13.82c.7,2.31,3.9,5.91,7.31,9.26C1209.74,904.86,1210.1,906.47,1210.41,908.11Z" transform="translate(-199.51 -548.55)"/><path class="cls-7" d="M1040,913.08c-2.61,6.89,2.81,12.28,6.09,15.56a53.61,53.61,0,0,1,8.2,11c1.64,3.05,4.21,4.92,8.43,1.64s4.21-7,11.94-6.56,11.95,8.2,14.52.24,1.37-8.9,1.51-15.23,5-14.52,2.48-18.73-8-5.62-2.48-9.84.6-5.62-3.38-6.56-9.37-1.64-9.84-7.49,1.41-8.9,3.28-12.65,4.45-9.13-3.74-7-15,2.11-14.06,9.14.24,11.47-5.15,15.46-.7,13.43-3.51,18S1041.64,908.75,1040,913.08Z" transform="translate(-199.51 -548.55)"/><path class="cls-7" d="M957.79,610.82c-8.1,1.25,10.19,5.27,15.11,13s15.81,7,11.24,16.86-7,8.43-4.92,14.41-4.21,11.24,1.06,11.24,11.94-1.76,17.21,4.92,5.27.35.7-8.43-5.27-11.6-2.81-15.81a14,14,0,0,0-1.75-16.52c-4.92-5.62-8.25-3.86-14-9.83S962.36,610.12,957.79,610.82Z" transform="translate(-199.51 -548.55)"/><path class="cls-7" d="M810.07,955.81c-4.9,2.21-1.76,8.61.17,12.82s-1.58,6.86,2.46,10.9,9.49,9.83,12.65,7,13-6.5,7.9-12.29-7.38-6-11.24-10.19S815.51,953.35,810.07,955.81Z" transform="translate(-199.51 -548.55)"/><path class="cls-7" d="M1101.6,891.64c.86,10.27,5.62,10.54,4,17.56s-1.93,12.18,1.14,12.18,4.48-17.56,7.52-11.24,6.33,9.6,7,5.86-9.13-11.17-5.39-16,11.71-17.25,2.35-11.16-12.88,13.82-14.29,7-3.28-9.83,4.68-12.18,14.76-1.87,15.7-7.26,1.64-16.39-5.63-8.66-7.72,6.56-13.58,10.54-11.48,4.21-9.13,7.49S1101.2,886.94,1101.6,891.64Z" transform="translate(-199.51 -548.55)"/><path class="cls-7" d="M1037.54,769.26c-6.7.34-6,4.92-1.76,9.84s4.92,10.54,10.54,15.81,12.3,7.38,13.71,11.94,6.84-.35,6.58-5.27,6.77-2.81,10.28.71,7.38,3.27,9.13,6.38,8.43-1.82,1.41-6.38-8.08-6.68-15.46-9.49-6.5-2.46-10.1,0-6.06,3.29-10.63-4-2.94-14-6.74-17.46S1044.57,768.91,1037.54,769.26Z" transform="translate(-199.51 -548.55)"/><path class="cls-10" d="M1692.57,549.28H1197.73c-78.45,0-142.64,64.19-142.64,142.57V1841.38c0,78.45,64.19,142.64,142.64,142.64h494.84c78.46,0,142.64-64.19,142.64-142.64V691.85C1835.21,613.47,1771,549.28,1692.57,549.28ZM1733.27,717H1157V690.87a40.74,40.74,0,0,1,40.7-40.69h494.84a40.73,40.73,0,0,1,40.7,40.69Z" transform="translate(-199.51 -548.55)"/><path class="cls-1" d="M1692.57,599.2H1197.73a91.77,91.77,0,0,0-91.67,91.67V1840.33a91.82,91.82,0,0,0,91.67,91.74h494.84a91.88,91.88,0,0,0,91.74-91.74V690.87A91.82,91.82,0,0,0,1692.57,599.2ZM1733.27,717H1157V690.87a40.74,40.74,0,0,1,40.7-40.69h494.84a40.73,40.73,0,0,1,40.7,40.69Z" transform="translate(-199.51 -548.55)"/><path class="cls-7" d="M1733.27,690.87V717H1157V690.87a40.74,40.74,0,0,1,40.7-40.69h494.84A40.73,40.73,0,0,1,1733.27,690.87Z" transform="translate(-199.51 -548.55)"/><path class="cls-8" d="M1733.27,717V1840.33a40.74,40.74,0,0,1-40.7,40.7H1197.73a40.74,40.74,0,0,1-40.7-40.7V717Z" transform="translate(-199.51 -548.55)"/><circle class="cls-2" cx="1013.49" cy="135.05" r="16.61"/><circle class="cls-8" cx="1060.24" cy="135.05" r="16.61"/><circle class="cls-11" cx="1106.99" cy="135.05" r="16.61"/><rect class="cls-7" x="1203.99" y="200.75" width="533.11" height="263.11"/><rect class="cls-8" x="1229.64" y="228.93" width="182.47" height="10.74"/><rect class="cls-8" x="1419.4" y="228.93" width="182.47" height="10.74"/><rect class="cls-8" x="1608.05" y="228.93" width="103.39" height="10.74"/><rect class="cls-8" x="1229.64" y="250.71" width="115.83" height="10.74"/><rect class="cls-8" x="1351.49" y="250.71" width="165.96" height="10.74"/><rect class="cls-8" x="1522.15" y="250.71" width="189.3" height="10.74"/><rect class="cls-8" x="1229.64" y="272.49" width="157.71" height="10.74"/><rect class="cls-8" x="1393.19" y="272.49" width="157.71" height="10.74"/><rect class="cls-8" x="1555.95" y="272.49" width="155.49" height="10.74"/><rect class="cls-8" x="1229.64" y="294.27" width="91.23" height="10.74"/><rect class="cls-8" x="1326.88" y="294.27" width="155.02" height="10.74"/><rect class="cls-8" x="1488.06" y="294.27" width="155.02" height="10.74"/><rect class="cls-8" x="1648.52" y="294.27" width="62.92" height="10.74"/><rect class="cls-8" x="1229.64" y="316.99" width="182.47" height="10.74"/><rect class="cls-8" x="1419.4" y="316.99" width="182.47" height="10.74"/><rect class="cls-8" x="1608.05" y="316.99" width="103.39" height="10.74"/><rect class="cls-8" x="1229.64" y="338.77" width="115.83" height="10.74"/><rect class="cls-8" x="1351.49" y="338.77" width="165.96" height="10.74"/><rect class="cls-8" x="1522.15" y="338.77" width="189.3" height="10.74"/><rect class="cls-8" x="1229.64" y="360.55" width="157.71" height="10.74"/><rect class="cls-8" x="1393.19" y="360.55" width="157.71" height="10.74"/><rect class="cls-8" x="1555.95" y="360.55" width="155.49" height="10.74"/><rect class="cls-8" x="1229.64" y="382.33" width="91.23" height="10.74"/><rect class="cls-8" x="1325.26" y="382.33" width="155.02" height="10.74"/><rect class="cls-8" x="1486.44" y="382.33" width="155.02" height="10.74"/><rect class="cls-8" x="1646.9" y="382.33" width="62.92" height="10.74"/><rect class="cls-8" x="1229.64" y="404.7" width="91.23" height="10.74"/><rect class="cls-8" x="1325.26" y="404.7" width="155.02" height="10.74"/><rect class="cls-8" x="1486.44" y="404.7" width="155.02" height="10.74"/><rect class="cls-8" x="1646.9" y="404.7" width="62.92" height="10.74"/><rect class="cls-8" x="1229.64" y="424.94" width="179.31" height="10.74"/><rect class="cls-7" x="1203.99" y="774.47" width="533.11" height="177.22"/><rect class="cls-8" x="1229.64" y="802.65" width="182.47" height="10.74"/><rect class="cls-8" x="1419.4" y="802.65" width="182.47" height="10.74"/><rect class="cls-8" x="1608.05" y="802.65" width="103.39" height="10.74"/><rect class="cls-8" x="1229.64" y="824.43" width="115.83" height="10.74"/><rect class="cls-8" x="1351.49" y="824.43" width="165.96" height="10.74"/><rect class="cls-8" x="1522.15" y="824.43" width="189.3" height="10.74"/><rect class="cls-8" x="1229.64" y="846.21" width="157.71" height="10.74"/><rect class="cls-8" x="1393.19" y="846.21" width="157.71" height="10.74"/><rect class="cls-8" x="1555.95" y="846.21" width="155.49" height="10.74"/><rect class="cls-8" x="1229.64" y="867.99" width="91.23" height="10.74"/><rect class="cls-8" x="1326.88" y="867.99" width="155.02" height="10.74"/><rect class="cls-8" x="1488.06" y="867.99" width="155.02" height="10.74"/><rect class="cls-8" x="1648.52" y="867.99" width="62.92" height="10.74"/><rect class="cls-8" x="1229.64" y="890.71" width="182.47" height="10.74"/><rect class="cls-8" x="1419.4" y="890.71" width="182.47" height="10.74"/><rect class="cls-8" x="1608.05" y="890.71" width="103.39" height="10.74"/><rect class="cls-8" x="1229.64" y="912.49" width="115.83" height="10.74"/><rect class="cls-7" x="1203.99" y="486.16" width="533.11" height="119.01"/><rect class="cls-8" x="1229.64" y="507.63" width="182.47" height="10.74"/><rect class="cls-8" x="1419.4" y="507.63" width="182.47" height="10.74"/><rect class="cls-8" x="1608.05" y="507.63" width="103.39" height="10.74"/><rect class="cls-8" x="1229.64" y="529.41" width="115.83" height="10.74"/><rect class="cls-8" x="1351.49" y="529.41" width="165.96" height="10.74"/><rect class="cls-8" x="1522.15" y="529.41" width="189.3" height="10.74"/><rect class="cls-8" x="1229.64" y="551.19" width="157.71" height="10.74"/><rect class="cls-8" x="1393.19" y="551.19" width="157.71" height="10.74"/><rect class="cls-8" x="1555.95" y="551.19" width="155.49" height="10.74"/><rect class="cls-8" x="1229.64" y="572.97" width="91.23" height="10.74"/><rect class="cls-7" x="1203.99" y="1062.78" width="533.11" height="119.02"/><rect class="cls-8" x="1229.64" y="1084.25" width="182.47" height="10.74"/><rect class="cls-8" x="1419.4" y="1084.25" width="182.47" height="10.74"/><rect class="cls-8" x="1608.05" y="1084.25" width="103.39" height="10.74"/><rect class="cls-8" x="1229.64" y="1106.03" width="115.83" height="10.74"/><rect class="cls-8" x="1351.49" y="1106.03" width="165.96" height="10.74"/><rect class="cls-8" x="1522.15" y="1106.03" width="189.3" height="10.74"/><rect class="cls-8" x="1229.64" y="1127.81" width="157.71" height="10.74"/><rect class="cls-8" x="1393.19" y="1127.81" width="157.71" height="10.74"/><rect class="cls-8" x="1555.95" y="1127.81" width="155.49" height="10.74"/><rect class="cls-8" x="1229.64" y="1149.59" width="91.23" height="10.74"/><circle class="cls-1" cx="1281.66" cy="836.26" r="89.86" transform="translate(-415.44 602.66) rotate(-45)"/><g class="cls-12"><path class="cls-13" d="M1489.88,897.5c1,1.77-7,11.1-14.73,15.74-6.52,3.94-22.53,11.4-27.27,13.57l-13.06-20.41a62.65,62.65,0,0,0,6.77-6.41c4.75-5.37,19.34-18.5,21.23-16.37s-6.31,13.13-4.79,13.37,9.41-6.44,12.53-9.55,8.81-10.87,11.35-10.48,3,4.19,3,4.19,1.81-3.22,3.62-1.72.22,7.22.22,7.22.79-1.89,2.36.25-3.68,9.86-3.68,9.86A1.64,1.64,0,0,1,1489.88,897.5Z" transform="translate(-199.51 -548.55)"/><path class="cls-14" d="M1284.72,776.48c-17,1.47-31.69,15.88-31.9,36.47s-3.94,31.17-16.38,28.78c0,0,34.86,20.22,80.79,2.38,0,0-5.76-6.83-6.57-22.29S1284.72,776.48,1284.72,776.48Z" transform="translate(-199.51 -548.55)"/><path class="cls-11" d="M1373.9,986.78h0a22.37,22.37,0,0,1-30.22-9.07L1300,896.49a22.38,22.38,0,0,1,9.07-30.22h0a22.37,22.37,0,0,1,30.22,9.07L1383,956.56A22.38,22.38,0,0,1,1373.9,986.78Z" transform="translate(-199.51 -548.55)"/><path class="cls-15" d="M1274.55,1013.81c-14.61,19.12-20.11,58.78-10.8,101.49s12.47,70.79,12.47,70.79a36.07,36.07,0,1,0,71.6-8.79L1333,1013.81Z" transform="translate(-199.51 -548.55)"/><path class="cls-11" d="M1271.33,857l-39,17.68s8.68,100.51,9.57,111.51-2.46,27.6-2.46,27.6H1333s-1.13-53.86,5.16-68.89c4.25-10.18,7.18-16.38,4.71-28s-20.53-32.29-17.61-52.49l-20.37-6.52Z" transform="translate(-199.51 -548.55)"/><path class="cls-11" d="M1201,1003h0a22.38,22.38,0,0,1-13.28-28.62l31.72-86.62A22.37,22.37,0,0,1,1248,874.48h0a22.39,22.39,0,0,1,13.28,28.63l-31.72,86.61A22.38,22.38,0,0,1,1201,1003Z" transform="translate(-199.51 -548.55)"/><path class="cls-16" d="M1309.57,798.77s5.31-13.07-7.46-17Z" transform="translate(-199.51 -548.55)"/><path class="cls-13" d="M1304.85,812.43v45.42s-.91,10-12.74,10.84c-10.21.78-16.73-6-19.47-9.54l-1.45-2.11,0,0,4.82-44.57Z" transform="translate(-199.51 -548.55)"/><polygon class="cls-17" points="1105.34 304.13 1085.21 282.24 1105.35 289.81 1105.34 304.13"/><path class="cls-13" d="M1284.88,835.64c9.41,5.54,20.51,5.54,27.21,1s5.6-14.8,3.61-21.35l0-.05c-.41-1.36-1-3.26-1.66-5.42l-6.35-21c-1.65-6.63-20.63-21.53-38.6-2.1S1275.47,830.09,1284.88,835.64Z" transform="translate(-199.51 -548.55)"/><path class="cls-14" d="M1307.07,786.17s-.25,7.94-11.37,13.24-21.67,13.42-20.34,25.14-2.69,18.34-2.69,18.34-1.66-14.61-9-27c-2.86-4.8-5.36-14.93-.61-23.66C1270.52,778.48,1289.86,768,1307.07,786.17Z" transform="translate(-199.51 -548.55)"/><path class="cls-13" d="M1277.26,822c2.39,3.54,3.07,6.05.3,7.93a7.32,7.32,0,0,1-9.88-2.1c-2.39-3.54-2.08-7.92.69-9.8S1274.87,818.5,1277.26,822Z" transform="translate(-199.51 -548.55)"/><path class="cls-18" d="M1271,824.67a5.2,5.2,0,0,1,4.36-.12c-1.61-4-6.46-2.4-6.46-2.4" transform="translate(-199.51 -548.55)"/><path class="cls-19" d="M1294.73,811.57c.44,1.58,1.63,2.64,2.66,2.35s1.51-1.8,1.06-3.39-1.63-2.64-2.66-2.36S1294.29,810,1294.73,811.57Z" transform="translate(-199.51 -548.55)"/><path class="cls-19" d="M1307.65,806.61c.41,1.46,1.51,2.44,2.46,2.18s1.38-1.67,1-3.14-1.51-2.44-2.46-2.18S1307.24,805.14,1307.65,806.61Z" transform="translate(-199.51 -548.55)"/><path class="cls-15" d="M1360.76,1372.13h-63.38l-21.75-186.29-.28-4.27a36,36,0,0,1,37.08-36,36.37,36.37,0,0,1,34.88,33.88Z" transform="translate(-199.51 -548.55)"/><path class="cls-20" d="M1289.29,809.05s2.09-4.84,6.21-4.44" transform="translate(-199.51 -548.55)"/><path class="cls-20" d="M1305.86,801s2.2-1.08,5.36.75" transform="translate(-199.51 -548.55)"/><path class="cls-21" d="M1245,1372.13h-60.48l19.2-192.42,0-.67a36,36,0,0,1,71.91,2.53,31.31,31.31,0,0,1-.17,3.26Z" transform="translate(-199.51 -548.55)"/><path class="cls-22" d="M1454,936.4l-74,46.84-4.38,3.63c-8.92,6.19-22,3-29-7.17s-5.44-23.49,3.49-29.67l82.9-46.47,1.84,2.84,13.06,20.41Z" transform="translate(-199.51 -548.55)"/><path class="cls-20" d="M1302.29,807.79s2.37,7.83,7.26,7.5a10.1,10.1,0,0,1-2.79,2.81" transform="translate(-199.51 -548.55)"/><path class="cls-21" d="M1303.62,1013.83l-.84,5.24-27.15,165.87a36.08,36.08,0,0,1-71.76-7.53s3.28-28.07,3.81-71.79c.42-33.88,8.09-61.2,20.17-78.87a62.94,62.94,0,0,1,11.55-12.92Z" transform="translate(-199.51 -548.55)"/><path class="cls-20" d="M1309.37,824.44s-4.53,3.59-9.8-1" transform="translate(-199.51 -548.55)"/><path class="cls-17" d="M1287.05,818.51c0,1.71,2.64,3.18,6,3.27s6.14-1.22,6.19-2.94-2.65-3.18-6-3.28S1287.1,816.79,1287.05,818.51Z" transform="translate(-199.51 -548.55)"/><path class="cls-17" d="M1312.13,814.45c.54.92,1.91,1.18,3.55.82-.41-1.36-1-3.26-1.66-5.42C1312.25,811.46,1311.41,813.31,1312.13,814.45Z" transform="translate(-199.51 -548.55)"/><path class="cls-23" d="M1278.86,830a2.74,2.74,0,1,1-3.36-2A2.74,2.74,0,0,1,1278.86,830Z" transform="translate(-199.51 -548.55)"/><polygon class="cls-13" points="972.86 864.45 1019.55 864.45 1025.6 855.22 1025.47 864.45 1035.75 864.45 1034.83 837.79 1037.08 823.57 999.06 823.57 998.92 837.79 972.86 864.45"/><path class="cls-7" d="M1306.29,857.66l-2.35,47.76-31.3-46.27c2.74,3.59,9.26,10.32,19.47,9.54C1303.94,867.81,1306.29,857.66,1306.29,857.66Z" transform="translate(-199.51 -548.55)"/><polygon class="cls-8" points="1071.94 305.88 1095.28 319.77 1090.35 328.4 1068.64 309.91 1071.94 305.88"/><polygon class="cls-8" points="1105.34 307.87 1095.28 319.77 1101.35 327.1 1107.69 310.06 1105.34 307.87"/><polygon class="cls-24" points="1230.81 455.11 1105.12 460.38 1133.97 364.88 1259.66 359.61 1230.81 455.11"/><polygon class="cls-25" points="1106.3 455.75 1063.67 421.12 1185.24 416.02 1231.99 450.48 1106.3 455.75"/><polygon class="cls-24" points="1228.35 453.12 1102.65 458.39 1131.51 362.9 1257.2 357.63 1228.35 453.12"/><polygon class="cls-25" points="1257.2 357.63 1259.66 359.61 1133.97 364.88 1105.12 460.38 1102.65 458.39 1131.51 362.9 1257.2 357.63"/><polygon class="cls-10" points="1063.67 421.12 1062.49 425.75 1105.12 460.38 1106.52 455.74 1063.67 421.12"/><path class="cls-25" d="M1401.18,958.8c.14,3.41-6,6.43-13.68,6.76s-14-2.18-14.19-5.59,6-6.43,13.68-6.75S1401,955.4,1401.18,958.8Z" transform="translate(-199.51 -548.55)"/><polygon class="cls-13" points="1140.8 864.45 1129.64 856.13 1130.59 864.45 1120.2 864.45 1115.1 837.79 1112.35 823.57 1152.63 823.57 1154.18 837.79 1186.5 864.45 1140.8 864.45"/><polygon class="cls-14" points="998.92 837.79 972.86 864.45 1019.55 864.45 1025.6 855.22 1025.47 864.45 1035.75 864.45 1034.83 837.79 998.92 837.79"/><polygon class="cls-14" points="1140.8 864.45 1129.64 856.13 1130.59 864.45 1120.2 864.45 1115.1 837.79 1154.18 837.79 1186.5 864.45 1140.8 864.45"/><path class="cls-13" d="M1356.52,980.93c1.82,1.86-.14,5.12-.14,5.12s3.4-1.49,3.91.78c.5,2.11-3.51,5.45-4,5.88.38-.19,1.68-.64,1.64,1.66,0,2.55-8,5.38-8.77,5.64a1.65,1.65,0,0,1,1.49,2.1c-.31,2-12.3,4.71-21.24,3.83-7.54-.75-24.74-4.39-29.88-5.49l1.36-24.12a60,60,0,0,0,9.56-1.12c7-1.47,26.59-3.22,26.83-.38s-12.92,6.74-11.85,7.83,11.39.48,15.75-.12S1354.73,979.08,1356.52,980.93Z" transform="translate(-199.51 -548.55)"/><path class="cls-11" d="M1301.28,969l-.42,7.3-1.36,24.12-.36,6.4-93.54-1.55c-10.86-.37-19.4-10.76-19-23.08s9.7-22.09,20.58-21.71l7,1.2,0,0Z" transform="translate(-199.51 -548.55)"/><polyline class="cls-20" points="1084.21 419.01 1039.56 415.26 1048.74 390.19"/><line class="cls-20" x1="1041.21" y1="457.34" x2="1020.92" y2="457.34"/><path class="cls-26" d="M1300,810.52c1.39,2.79.79,5.91-1.34,7s-5-.35-6.36-3.14-.78-5.91,1.34-7S1298.6,807.73,1300,810.52Z" transform="translate(-199.51 -548.55)"/><path class="cls-26" d="M1312.74,805.63c1.39,2.79.79,5.91-1.34,7s-5-.35-6.36-3.15-.79-5.9,1.34-7S1311.35,802.84,1312.74,805.63Z" transform="translate(-199.51 -548.55)"/><line class="cls-26" x1="1099.72" y1="260.77" x2="1104.89" y2="259"/></g><polygon class="cls-22" points="1020.36 412.1 1028.77 429.14 1047.57 431.87 1033.96 445.13 1037.18 463.86 1020.36 455.02 1003.54 463.86 1006.75 445.13 993.15 431.87 1011.95 429.14 1020.36 412.1"/><polygon class="cls-22" points="1082.15 412.1 1090.56 429.14 1109.37 431.87 1095.76 445.13 1098.97 463.86 1082.15 455.02 1065.34 463.86 1068.55 445.13 1054.94 431.87 1073.75 429.14 1082.15 412.1"/><polygon class="cls-22" points="1143.95 412.1 1152.36 429.14 1171.16 431.87 1157.56 445.13 1160.77 463.86 1143.95 455.02 1127.13 463.86 1130.35 445.13 1116.74 431.87 1135.54 429.14 1143.95 412.1"/><rect class="cls-1" x="996.89" y="383.91" width="170.53" height="12.46"/><circle class="cls-1" cx="1281.66" cy="1412.83" r="89.86" transform="translate(-823.14 771.54) rotate(-45)"/><g class="cls-27"><path class="cls-13" d="M1489.88,1474.08c1,1.77-7,11.1-14.73,15.74-6.52,3.93-22.53,11.4-27.27,13.56l-13.06-20.4a64.67,64.67,0,0,0,6.77-6.41c4.75-5.38,19.34-18.51,21.23-16.37s-6.31,13.12-4.79,13.37,9.41-6.45,12.53-9.56,8.81-10.86,11.35-10.47,3,4.18,3,4.18,1.81-3.21,3.62-1.71.22,7.21.22,7.21.79-1.88,2.36.26-3.68,9.85-3.68,9.85A1.63,1.63,0,0,1,1489.88,1474.08Z" transform="translate(-199.51 -548.55)"/><path class="cls-14" d="M1284.72,1353.05c-17,1.48-31.69,15.89-31.9,36.47s-3.94,31.18-16.38,28.79c0,0,34.86,20.21,80.79,2.37,0,0-5.76-6.82-6.57-22.28S1284.72,1353.05,1284.72,1353.05Z" transform="translate(-199.51 -548.55)"/><path class="cls-11" d="M1373.9,1563.36h0a22.39,22.39,0,0,1-30.22-9.07L1300,1473.06a22.38,22.38,0,0,1,9.07-30.22h0a22.38,22.38,0,0,1,30.22,9.08l43.72,81.22A22.38,22.38,0,0,1,1373.9,1563.36Z" transform="translate(-199.51 -548.55)"/><path class="cls-15" d="M1274.55,1590.38c-14.61,19.13-20.11,58.78-10.8,101.49s12.47,70.8,12.47,70.8a36.07,36.07,0,0,0,71.6-8.79L1333,1590.38Z" transform="translate(-199.51 -548.55)"/><path class="cls-11" d="M1271.33,1433.59l-39,17.68s8.68,100.52,9.57,111.51-2.46,27.6-2.46,27.6H1333s-1.13-53.85,5.16-68.89c4.25-10.18,7.18-16.38,4.71-28s-20.53-32.3-17.61-52.49l-20.37-6.53Z" transform="translate(-199.51 -548.55)"/><path class="cls-11" d="M1201,1579.57h0a22.38,22.38,0,0,1-13.28-28.62l31.72-86.61a22.36,22.36,0,0,1,28.62-13.28h0a22.38,22.38,0,0,1,13.28,28.62l-31.72,86.61A22.37,22.37,0,0,1,1201,1579.57Z" transform="translate(-199.51 -548.55)"/><path class="cls-16" d="M1309.57,1375.34s5.31-13.07-7.46-17Z" transform="translate(-199.51 -548.55)"/><path class="cls-13" d="M1304.85,1389v45.42s-.91,10-12.74,10.85c-10.21.77-16.73-6-19.47-9.54l-1.45-2.12,0,0L1276,1389Z" transform="translate(-199.51 -548.55)"/><polygon class="cls-17" points="1105.34 880.71 1085.21 858.81 1105.35 866.38 1105.34 880.71"/><path class="cls-13" d="M1284.88,1412.21c9.41,5.55,20.51,5.54,27.21,1s5.6-14.8,3.61-21.36l0-.05c-.41-1.35-1-3.26-1.66-5.42l-6.35-21c-1.65-6.62-20.63-21.53-38.6-2.09S1275.47,1406.66,1284.88,1412.21Z" transform="translate(-199.51 -548.55)"/><path class="cls-14" d="M1307.07,1362.74s-.25,7.94-11.37,13.25-21.67,13.41-20.34,25.14-2.69,18.34-2.69,18.34-1.66-14.62-9-27c-2.86-4.8-5.36-14.93-.61-23.65C1270.52,1355.05,1289.86,1344.58,1307.07,1362.74Z" transform="translate(-199.51 -548.55)"/><path class="cls-13" d="M1277.26,1398.61c2.39,3.53,3.07,6.05.3,7.92a7.31,7.31,0,0,1-9.88-2.1c-2.39-3.53-2.08-7.92.69-9.8S1274.87,1395.07,1277.26,1398.61Z" transform="translate(-199.51 -548.55)"/><path class="cls-18" d="M1271,1401.24a5.22,5.22,0,0,1,4.36-.11c-1.61-4-6.46-2.41-6.46-2.41" transform="translate(-199.51 -548.55)"/><path class="cls-19" d="M1294.73,1388.14c.44,1.59,1.63,2.64,2.66,2.36s1.51-1.81,1.06-3.4-1.63-2.64-2.66-2.35S1294.29,1386.55,1294.73,1388.14Z" transform="translate(-199.51 -548.55)"/><path class="cls-19" d="M1307.65,1383.18c.41,1.47,1.51,2.44,2.46,2.18s1.38-1.67,1-3.13-1.51-2.45-2.46-2.18S1307.24,1381.71,1307.65,1383.18Z" transform="translate(-199.51 -548.55)"/><path class="cls-15" d="M1360.76,1948.7h-63.38l-21.75-186.29-.28-4.26a36,36,0,0,1,37.08-36,36.37,36.37,0,0,1,34.88,33.88Z" transform="translate(-199.51 -548.55)"/><path class="cls-20" d="M1289.29,1385.63s2.09-4.85,6.21-4.45" transform="translate(-199.51 -548.55)"/><path class="cls-20" d="M1305.86,1377.53s2.2-1.07,5.36.75" transform="translate(-199.51 -548.55)"/><path class="cls-21" d="M1245,1948.7h-60.48l19.2-192.42,0-.67a36,36,0,0,1,71.91,2.54,31.61,31.61,0,0,1-.17,3.26Z" transform="translate(-199.51 -548.55)"/><path class="cls-22" d="M1454,1513l-74,46.83-4.38,3.64c-8.92,6.18-22,3-29-7.17s-5.44-23.5,3.49-29.68l82.9-46.46,1.84,2.84,13.06,20.4Z" transform="translate(-199.51 -548.55)"/><path class="cls-20" d="M1302.29,1384.37s2.37,7.82,7.26,7.5a10.24,10.24,0,0,1-2.79,2.81" transform="translate(-199.51 -548.55)"/><path class="cls-21" d="M1303.62,1590.4l-.84,5.25-27.15,165.87a36.08,36.08,0,1,1-71.76-7.54s3.28-28.06,3.81-71.79c.42-33.87,8.09-61.19,20.17-78.87a62.94,62.94,0,0,1,11.55-12.92Z" transform="translate(-199.51 -548.55)"/><path class="cls-20" d="M1309.37,1401s-4.53,3.59-9.8-1" transform="translate(-199.51 -548.55)"/><path class="cls-17" d="M1287.05,1395.08c0,1.72,2.64,3.19,6,3.28s6.14-1.23,6.19-2.94-2.65-3.19-6-3.28S1287.1,1393.36,1287.05,1395.08Z" transform="translate(-199.51 -548.55)"/><path class="cls-17" d="M1312.13,1391c.54.91,1.91,1.17,3.55.81-.41-1.35-1-3.26-1.66-5.42C1312.25,1388,1311.41,1389.89,1312.13,1391Z" transform="translate(-199.51 -548.55)"/><path class="cls-23" d="M1278.86,1406.53a2.74,2.74,0,1,1-3.36-1.94A2.75,2.75,0,0,1,1278.86,1406.53Z" transform="translate(-199.51 -548.55)"/><polygon class="cls-13" points="972.86 1441.02 1019.55 1441.02 1025.6 1431.79 1025.47 1441.02 1035.75 1441.02 1034.83 1414.37 1037.08 1400.14 999.06 1400.14 998.92 1414.37 972.86 1441.02"/><path class="cls-7" d="M1306.29,1434.24l-2.35,47.75-31.3-46.26c2.74,3.59,9.26,10.31,19.47,9.54C1303.94,1444.39,1306.29,1434.24,1306.29,1434.24Z" transform="translate(-199.51 -548.55)"/><polygon class="cls-8" points="1071.94 882.45 1095.28 896.34 1090.35 904.98 1068.64 886.48 1071.94 882.45"/><polygon class="cls-8" points="1105.34 884.45 1095.28 896.34 1101.35 903.67 1107.69 886.63 1105.34 884.45"/><polygon class="cls-24" points="1230.81 1031.68 1105.12 1036.95 1133.97 941.46 1259.66 936.18 1230.81 1031.68"/><polygon class="cls-25" points="1106.3 1032.33 1063.67 997.7 1185.24 992.6 1231.99 1027.06 1106.3 1032.33"/><polygon class="cls-24" points="1228.35 1029.7 1102.65 1034.97 1131.51 939.47 1257.2 934.2 1228.35 1029.7"/><polygon class="cls-25" points="1257.2 934.2 1259.66 936.18 1133.97 941.46 1105.12 1036.95 1102.65 1034.97 1131.51 939.47 1257.2 934.2"/><polygon class="cls-10" points="1063.67 997.7 1062.49 1002.32 1105.12 1036.95 1106.52 1032.32 1063.67 997.7"/><ellipse class="cls-25" cx="1387.24" cy="1535.96" rx="13.95" ry="6.17" transform="translate(-262.65 -489.07) rotate(-2.4)"/><polygon class="cls-13" points="1140.8 1441.02 1129.64 1432.71 1130.59 1441.02 1120.2 1441.02 1115.1 1414.37 1112.35 1400.14 1152.63 1400.14 1154.18 1414.37 1186.5 1441.02 1140.8 1441.02"/><polygon class="cls-14" points="998.92 1414.37 972.86 1441.02 1019.55 1441.02 1025.6 1431.79 1025.47 1441.02 1035.75 1441.02 1034.83 1414.37 998.92 1414.37"/><polygon class="cls-14" points="1140.8 1441.02 1129.64 1432.71 1130.59 1441.02 1120.2 1441.02 1115.1 1414.37 1154.18 1414.37 1186.5 1441.02 1140.8 1441.02"/><path class="cls-13" d="M1356.52,1557.5c1.82,1.86-.14,5.13-.14,5.13s3.4-1.49,3.91.77-3.51,5.45-4,5.88c.38-.18,1.68-.64,1.64,1.67,0,2.54-8,5.37-8.77,5.63a1.66,1.66,0,0,1,1.49,2.11c-.31,2-12.3,4.7-21.24,3.83-7.54-.76-24.74-4.4-29.88-5.5l1.36-24.12a61.14,61.14,0,0,0,9.56-1.11c7-1.47,26.59-3.23,26.83-.38s-12.92,6.73-11.85,7.82,11.39.48,15.75-.12S1354.73,1555.66,1356.52,1557.5Z" transform="translate(-199.51 -548.55)"/><path class="cls-11" d="M1301.28,1545.61l-.42,7.29L1299.5,1577l-.36,6.41-93.54-1.55c-10.86-.37-19.4-10.76-19-23.09s9.7-22.09,20.58-21.7l7,1.2h0Z" transform="translate(-199.51 -548.55)"/><polyline class="cls-20" points="1084.21 995.59 1039.56 991.84 1048.74 966.77"/><line class="cls-20" x1="1041.21" y1="1033.91" x2="1020.92" y2="1033.91"/><path class="cls-26" d="M1300,1387.09c1.39,2.79.79,5.91-1.34,7s-5-.35-6.36-3.15-.78-5.91,1.34-7S1298.6,1384.3,1300,1387.09Z" transform="translate(-199.51 -548.55)"/><path class="cls-26" d="M1312.74,1382.21c1.39,2.79.79,5.91-1.34,7s-5-.35-6.36-3.14-.79-5.91,1.34-7S1311.35,1379.41,1312.74,1382.21Z" transform="translate(-199.51 -548.55)"/><line class="cls-26" x1="1099.72" y1="837.35" x2="1104.89" y2="835.57"/></g><polygon class="cls-22" points="1020.36 988.67 1028.77 1005.71 1047.57 1008.44 1033.96 1021.71 1037.18 1040.43 1020.36 1031.59 1003.54 1040.43 1006.75 1021.71 993.15 1008.44 1011.95 1005.71 1020.36 988.67"/><polygon class="cls-22" points="1082.15 988.67 1090.56 1005.71 1109.37 1008.44 1095.76 1021.71 1098.97 1040.43 1082.15 1031.59 1065.34 1040.43 1068.55 1021.71 1054.94 1008.44 1073.75 1005.71 1082.15 988.67"/><polygon class="cls-22" points="1143.95 988.67 1152.36 1005.71 1171.16 1008.44 1157.56 1021.71 1160.77 1040.43 1143.95 1031.59 1127.13 1040.43 1130.35 1021.71 1116.74 1008.44 1135.54 1005.71 1143.95 988.67"/><rect class="cls-1" x="996.89" y="960.49" width="170.53" height="12.46"/><circle class="cls-1" cx="1281.66" cy="1124.57" r="89.86" transform="translate(-619.31 687.11) rotate(-45)"/><g class="cls-28"><polygon class="cls-29" points="1013.36 820.84 1013.14 787.37 1052.41 793.16 1013.36 820.84"/><path class="cls-13" d="M1455.67,1262.53l9-6.27s11-4.22,14.83-6.19c2.15-1.11,8.24-3.5,9.37-3.52.9,0,2.45,1.39,2.09,2.19-.47,1-5.55,5-7.51,6.56l-7.45,6s18-1.87,24-2.84c3.38-.55,13.17-2.56,13.71-.24.41,1.77-9.39,5-12.73,6.07-3.07,1-12.25,4.21-12.25,4.21l17.74-3.07c3.22-.55,12.64-3.43,13.31-.84s-8.81,4.72-11.9,5.79l-17.39,6,18.63-2.78c2.58-.38,10.11-2.53,10.57-.07s-7.4,3.68-10,4.41l-17.5,5,13.52-1.65c1.44-.17,5.76-.57,5.89.86.18,1.93-5.61,2.89-7.52,3.43l-15.75,4.42a16.68,16.68,0,0,1-3.9.61l-23.89,3.69Z" transform="translate(-199.51 -548.55)"/><path class="cls-15" d="M1293,1330.41l132.92,84.17a37.22,37.22,0,1,1-39.41,61.88l-153.23-80.32Z" transform="translate(-199.51 -548.55)"/><path class="cls-15" d="M1448.59,1454.09a37.79,37.79,0,0,0,.41-5.24,37.24,37.24,0,1,0-74.47,0l2.2,166.27h62Z" transform="translate(-199.51 -548.55)"/><path class="cls-21" d="M1222.51,1395.42l83.25,99.58a41.79,41.79,0,0,0,58.68,5.24h0a41.78,41.78,0,0,0,5.24-58.68L1286.43,1342a41.76,41.76,0,0,0-58.67-5.24h0A41.79,41.79,0,0,0,1222.51,1395.42Z" transform="translate(-199.51 -548.55)"/><polygon class="cls-1" points="1091.13 622.07 1130.51 639.8 1125.08 799.76 1013.14 801.5 996.18 636.95 1050.85 619.15 1091.13 622.07"/><path class="cls-13" d="M1290.63,1147.52v25s-1.49,5.39-14.19,5.44-26.09-8.37-26.09-8.37l3.93-54.63Z" transform="translate(-199.51 -548.55)"/><polygon class="cls-17" points="1091.13 620.52 1065.18 593.59 1091.13 593.25 1091.13 620.52"/><path class="cls-13" d="M1301.26,1097.27v35.16c0,7.1-2,17.63-10,20.06s-18.93-.89-26.57-9.19-24.62-45.82-1-59.67S1300.71,1093.6,1301.26,1097.27Z" transform="translate(-199.51 -548.55)"/><path class="cls-30" d="M1336.16,1305.71a22.25,22.25,0,0,0,22.94,16.59h0l104.41-23.81-1.74-13.86-3.18-25.54-.35-3-106.19,22.7A22.14,22.14,0,0,0,1336.16,1305.71Z" transform="translate(-199.51 -548.55)"/><path class="cls-21" d="M1379.54,1464.6a37.23,37.23,0,0,0-37.24-37.23c-20.56,0-31.85,8.57-36.34,29.08-10.41,47.61-32.26,174.42-32.26,174.42h64.52l40.91-161A37.55,37.55,0,0,0,1379.54,1464.6Z" transform="translate(-199.51 -548.55)"/><path class="cls-30" d="M1380.57,1317.21h0a25.82,25.82,0,0,1-35.1-9.69L1299,1225.64a25.84,25.84,0,0,1,9.69-35.1h0a25.84,25.84,0,0,1,35.1,9.69l46.45,81.88A25.83,25.83,0,0,1,1380.57,1317.21Z" transform="translate(-199.51 -548.55)"/><path class="cls-14" d="M1266.13,1082.33s28.55-13.17,35.13-4.52-4.38,11.67-4.38,11.67,13.62-1.61,13.09,7.57-34.6-3.36-34.6-3.36,11.29,5.12,4.76,9.18-14-1.23-14-1.23-6.48,3.7-5.41,20.71-9.1,20.77-9.1,20.77,1.22-25.77-3.76-32.66S1250.19,1078,1266.13,1082.33Z" transform="translate(-199.51 -548.55)"/><path class="cls-13" d="M1262.32,1126.3c2.77,4.34,3.51,7.39.1,9.56a8.82,8.82,0,0,1-11.84-2.85c-2.77-4.33-2.26-9.62,1.15-11.79S1259.55,1122,1262.32,1126.3Z" transform="translate(-199.51 -548.55)"/><path class="cls-31" d="M1253.42,1126s3.5-.52,5.9,4a13.17,13.17,0,0,0-4.9,0" transform="translate(-199.51 -548.55)"/><path class="cls-19" d="M1280.05,1117.2c0,1.64.86,3,1.92,3s1.93-1.34,1.93-3-.86-3-1.93-3S1280.05,1115.55,1280.05,1117.2Z" transform="translate(-199.51 -548.55)"/><path class="cls-32" d="M1281.28,1135.89s2.87,5.58,10.11,4.27" transform="translate(-199.51 -548.55)"/><path class="cls-32" d="M1288.23,1118.33l3.64,10.52a2.45,2.45,0,0,1-1,2.85l-3,1.93" transform="translate(-199.51 -548.55)"/><path class="cls-32" d="M1277,1112.25s4.06-2.84,7.93-1" transform="translate(-199.51 -548.55)"/><path class="cls-19" d="M1300,1117.2c0,1.64-.87,3-1.93,3s-1.93-1.34-1.93-3,.86-3,1.93-3S1300,1115.55,1300,1117.2Z" transform="translate(-199.51 -548.55)"/><path class="cls-32" d="M1301.75,1112.08a6.15,6.15,0,0,0-6.69-.87" transform="translate(-199.51 -548.55)"/><path class="cls-30" d="M1239.25,1324.69h0a25.83,25.83,0,0,1-32.12-17.16l-27.34-90.08a25.82,25.82,0,0,1,17.16-32.11h0a25.83,25.83,0,0,1,32.12,17.16l27.34,90.08A25.82,25.82,0,0,1,1239.25,1324.69Z" transform="translate(-199.51 -548.55)"/><path class="cls-17" d="M1283.11,1128.06c-.51,1.52-3.35,1.93-6.36.92s-5-3-4.53-4.56,3.36-1.92,6.36-.92S1283.62,1126.55,1283.11,1128.06Z" transform="translate(-199.51 -548.55)"/><path class="cls-17" d="M1301.26,1123.45v5.84c-2.46.29-4.48-.39-4.82-1.67C1296.08,1126.1,1298.22,1124.24,1301.26,1123.45Z" transform="translate(-199.51 -548.55)"/><polygon class="cls-13" points="1184.66 1091.51 1183.37 1066.57 1233.69 1066.57 1234.49 1091.51 1184.66 1091.51"/><polygon class="cls-17" points="1234.16 1081.07 1183.37 1066.57 1233.69 1066.57 1234.16 1081.07"/><polygon class="cls-13" points="1073.88 1107.26 1078 1082.33 1127.11 1082.33 1120.86 1107.26 1073.88 1107.26"/><polygon class="cls-11" points="1083.87 633.84 1074.76 633.84 1073.96 635.57 1078.16 638.69 1081.74 638.69 1084.73 635.03 1083.87 633.84"/><polygon class="cls-17" points="1124.11 1094.31 1078 1082.33 1127.11 1082.33 1124.11 1094.31"/><polygon class="cls-8" points="1051 618.86 1079.64 629.4 1074.42 641.36 1049.74 621.49 1051 618.86"/><polygon class="cls-8" points="1091.12 621.76 1092.49 624.57 1085.07 640.22 1079.64 629.4 1091.12 621.76"/><polygon class="cls-11" points="1081.74 638.69 1095.31 744.03 1084.73 757.66 1070.98 745.3 1078.16 638.69 1081.74 638.69"/><line class="cls-32" x1="1021.66" y1="690.62" x2="1006.59" y2="752.88"/><line class="cls-32" x1="1127.56" y1="728.42" x2="1128.85" y2="690.62"/><path class="cls-33" d="M1273.39,1655.81,1269,1674h65.92a14.85,14.85,0,0,0-14.48-18.17h-47Z" transform="translate(-199.51 -548.55)"/><path class="cls-33" d="M1384.17,1640.05v19.79h69l-.09-1.63a19.15,19.15,0,0,0-19.12-18.16h-49.83Z" transform="translate(-199.51 -548.55)"/><path class="cls-34" d="M1435,1644s1.51-6.58,5.22-4.79-5,5-5,5l5.16,3.57" transform="translate(-199.51 -548.55)"/><path class="cls-34" d="M1435,1644s-1.5-6.58-5.21-4.79,5,5,5,5l-5.17,3.57" transform="translate(-199.51 -548.55)"/><path class="cls-34" d="M1319.9,1660.49s1.5-6.58,5.21-4.79-5,5-5,5l5.17,3.57" transform="translate(-199.51 -548.55)"/><path class="cls-34" d="M1319.9,1660.49s-1.5-6.58-5.21-4.79,5,5,5,5l-5.16,3.57" transform="translate(-199.51 -548.55)"/><path class="cls-30" d="M1294.79,1172.53s2.69,28.17,7,70.71,4.08,108.94,17.82,121.68c0,0,14.15,1,42.81,9.5,0,0-8-26.94-17.83-42.19S1330,1188.35,1330,1188.35Z" transform="translate(-199.51 -548.55)"/><polygon class="cls-1" points="1097.6 647.78 1100.93 680.95 1090.35 671.94 1091.12 648.43 1097.6 647.78"/><path class="cls-30" d="M1240.61,1170.87s10.58,45.62,15.76,87.92,3.42,83.21,16.75,108.06c0,0-53.46,9.61-53.34,31.18,0,0-15.07-16.62-15.2-39.39s-8.89-173.14-8.89-173.14Z" transform="translate(-199.51 -548.55)"/><path class="cls-35" d="M1404,1289.24s-117,20.18-141.12,95.16c-41.68,129.41,44.72,555.17-393.91,575.52" transform="translate(-199.51 -548.55)"/><path class="cls-10" d="M1322.28,1195.69h192a0,0,0,0,1,0,0v64.85a91.31,91.31,0,0,1-91.31,91.31h-9.42a91.31,91.31,0,0,1-91.31-91.31v-64.85a0,0,0,0,1,0,0Z" transform="translate(1845.62 -1075.09) rotate(67.27)"/><path class="cls-36" d="M1551.31,1317.21l-70.68-168.72a4.55,4.55,0,0,0-6-2.44l-26.36,11a4.55,4.55,0,0,0-2.43,6l70.68,168.72a4.55,4.55,0,0,0,6,2.44l26.36-11A4.55,4.55,0,0,0,1551.31,1317.21Z" transform="translate(-199.51 -548.55)"/><path class="cls-10" d="M1476.37,1150.4l70.6,168.51-26.14,11-70.6-168.52,26.14-10.95m.06-1.76a1.71,1.71,0,0,0-.62.12l-26.35,11a1.62,1.62,0,0,0-.87,2.11l70.69,168.72a1.61,1.61,0,0,0,1.49,1,1.67,1.67,0,0,0,.62-.12l26.35-11a1.61,1.61,0,0,0,.86-2.11l-70.68-168.72a1.6,1.6,0,0,0-1.49-1Z" transform="translate(-199.51 -548.55)"/><path class="cls-37" d="M1391.75,1231.77a15.25,15.25,0,0,0,3.48-26.11,15,15,0,0,0-8.94-3.2,14.88,14.88,0,0,0-6.34,1.16,15.24,15.24,0,0,0-3.49,26.09,15,15,0,0,0,8.91,3.21A14.72,14.72,0,0,0,1391.75,1231.77Z" transform="translate(-199.51 -548.55)"/><path class="cls-22" d="M1385.37,1232.92l9.86-27.26a15,15,0,0,0-8.94-3.2l-9.83,27.25A15,15,0,0,0,1385.37,1232.92Z" transform="translate(-199.51 -548.55)"/><path class="cls-37" d="M1429.61,1322.15a15.27,15.27,0,0,1,21.06,15.84,15.45,15.45,0,0,1-9.27,12.32,15.25,15.25,0,0,1-21.05-15.81,15,15,0,0,1,4-8.61A14.86,14.86,0,0,1,1429.61,1322.15Z" transform="translate(-199.51 -548.55)"/><path class="cls-22" d="M1424.32,1325.89l26.35,12.1a15.07,15.07,0,0,1-4,8.61l-26.32-12.1A15,15,0,0,1,1424.32,1325.89Z" transform="translate(-199.51 -548.55)"/><path class="cls-36" d="M1479,1289.49l-29.33-70a3,3,0,0,0-3.9-1.59h0a3,3,0,0,0-1.6,3.89l29.34,70a3,3,0,0,0,3.9,1.59h0A3,3,0,0,0,1479,1289.49Z" transform="translate(-199.51 -548.55)"/><path class="cls-36" d="M1465.63,1295.1l-29.33-70a3,3,0,0,0-3.9-1.59h0a3,3,0,0,0-1.59,3.89l29.33,70a3,3,0,0,0,3.9,1.59h0A3,3,0,0,0,1465.63,1295.1Z" transform="translate(-199.51 -548.55)"/><path class="cls-36" d="M1452.25,1300.7l-29.34-70a3,3,0,0,0-3.89-1.6h0a3,3,0,0,0-1.6,3.9l29.34,70a3,3,0,0,0,3.89,1.59h0A3,3,0,0,0,1452.25,1300.7Z" transform="translate(-199.51 -548.55)"/><path class="cls-36" d="M1438.86,1306.31l-29.33-70a3,3,0,0,0-3.9-1.6h0a3,3,0,0,0-1.6,3.9l29.34,70a3,3,0,0,0,3.89,1.6h0A3,3,0,0,0,1438.86,1306.31Z" transform="translate(-199.51 -548.55)"/><path class="cls-36" d="M1425.47,1311.92l-29.33-70a3,3,0,0,0-3.9-1.6h0a3,3,0,0,0-1.59,3.9l29.33,70a3,3,0,0,0,3.9,1.6h0A3,3,0,0,0,1425.47,1311.92Z" transform="translate(-199.51 -548.55)"/><path class="cls-36" d="M1412.09,1317.53l-29.34-70a3,3,0,0,0-3.89-1.59h0a3,3,0,0,0-1.6,3.9l29.33,70a3,3,0,0,0,3.9,1.59h0A3,3,0,0,0,1412.09,1317.53Z" transform="translate(-199.51 -548.55)"/><path class="cls-10" d="M1489.09,1189.69c4,9.58,2.84,19.2-2.62,21.48s-13.14-3.62-17.15-13.2-2.84-19.19,2.62-21.48S1485.08,1180.12,1489.09,1189.69Z" transform="translate(-199.51 -548.55)"/><path class="cls-10" d="M1527.88,1282.29c-4-9.58-11.69-15.49-17.15-13.2s-6.63,11.9-2.62,21.48,11.69,15.48,17.15,13.2S1531.89,1291.86,1527.88,1282.29Z" transform="translate(-199.51 -548.55)"/><path class="cls-13" d="M1342,1282.14l.76,35.65h.12c9.28-.59,32.64,4.55,41.15,6.51a4.67,4.67,0,0,0,5-2l10.36-15.54a10.14,10.14,0,0,0,1.41-8.23l-3.09-12.19a1.65,1.65,0,0,0-2.76-.73l-6.81,7.32a2.94,2.94,0,0,1-3.75.44l-10.6-6.84,18.12-.28a2,2,0,0,0,2-1.88l.09-1.49a2,2,0,0,0-1.72-2.19l-31.5-4.22-17.69,5.77Z" transform="translate(-199.51 -548.55)"/><path class="cls-30" d="M1208.65,1302.3c-.51,13.7,9,25.31,21.13,25.73l115.68-3.23-1.06-49.5-109.44-.62C1222.84,1274.26,1209.12,1288.57,1208.65,1302.3Z" transform="translate(-199.51 -548.55)"/><polyline class="cls-38" points="1058.54 726.26 1051.19 726.26 1037.59 680.42"/><path class="cls-38" d="M1262.1,1327.12s-34.25,3.07-43.88-3.37-15.77-31.59-15.77-31.59" transform="translate(-199.51 -548.55)"/></g><polygon class="cls-22" points="1020.36 700.41 1028.77 717.45 1047.57 720.18 1033.96 733.44 1037.18 752.17 1020.36 743.33 1003.54 752.17 1006.75 733.44 993.15 720.18 1011.95 717.45 1020.36 700.41"/><polygon class="cls-22" points="1082.15 700.41 1090.56 717.45 1109.37 720.18 1095.76 733.44 1098.97 752.17 1082.15 743.33 1065.34 752.17 1068.55 733.44 1054.94 720.18 1073.75 717.45 1082.15 700.41"/><polygon class="cls-22" points="1143.95 700.41 1152.36 717.45 1171.16 720.18 1157.56 733.44 1160.77 752.17 1143.95 743.33 1127.13 752.17 1130.35 733.44 1116.74 720.18 1135.54 717.45 1143.95 700.41"/><rect class="cls-1" x="996.89" y="672.22" width="170.53" height="12.46"/><circle class="cls-1" cx="1281.66" cy="1698.98" r="89.86" transform="translate(-1025.48 855.35) rotate(-45)"/><g class="cls-39"><polygon class="cls-29" points="1013.36 1395.25 1013.14 1361.78 1052.41 1367.58 1013.36 1395.25"/><path class="cls-13" d="M1455.67,1836.94l9-6.27s11-4.22,14.83-6.19c2.15-1.11,8.24-3.5,9.37-3.52.9,0,2.45,1.39,2.09,2.19-.47,1-5.55,5-7.51,6.56l-7.45,6s18-1.87,24-2.84c3.38-.55,13.17-2.56,13.71-.24.41,1.77-9.39,4.95-12.73,6.07-3.07,1-12.25,4.21-12.25,4.21l17.74-3.07c3.22-.55,12.64-3.42,13.31-.84s-8.81,4.72-11.9,5.79l-17.39,6,18.63-2.78c2.58-.38,10.11-2.53,10.57-.07s-7.4,3.68-10,4.41l-17.5,5,13.52-1.65c1.44-.17,5.76-.57,5.89.86.18,1.93-5.61,2.89-7.52,3.43l-15.75,4.42a16.68,16.68,0,0,1-3.9.61l-23.89,3.69Z" transform="translate(-199.51 -548.55)"/><path class="cls-15" d="M1293,1904.82,1425.89,1989a37.22,37.22,0,1,1-39.41,61.88l-153.23-80.32Z" transform="translate(-199.51 -548.55)"/><path class="cls-15" d="M1448.59,2028.5a37.79,37.79,0,0,0,.41-5.24,37.24,37.24,0,1,0-74.47,0l2.2,166.27h62Z" transform="translate(-199.51 -548.55)"/><path class="cls-21" d="M1222.51,1969.83l83.25,99.58a41.79,41.79,0,0,0,58.68,5.24h0a41.78,41.78,0,0,0,5.24-58.68l-83.25-99.58a41.76,41.76,0,0,0-58.67-5.24h0A41.79,41.79,0,0,0,1222.51,1969.83Z" transform="translate(-199.51 -548.55)"/><polygon class="cls-1" points="1091.13 1196.48 1130.51 1214.21 1125.08 1374.17 1013.14 1375.91 996.18 1211.36 1050.85 1193.56 1091.13 1196.48"/><path class="cls-13" d="M1290.63,1721.93v25s-1.49,5.39-14.19,5.44-26.09-8.37-26.09-8.37l3.93-54.63Z" transform="translate(-199.51 -548.55)"/><polygon class="cls-17" points="1091.13 1194.94 1065.18 1168 1091.13 1167.66 1091.13 1194.94"/><path class="cls-13" d="M1301.26,1671.68v35.16c0,7.1-2,17.63-10,20.06s-18.93-.89-26.57-9.19-24.62-45.82-1-59.67S1300.71,1668,1301.26,1671.68Z" transform="translate(-199.51 -548.55)"/><path class="cls-30" d="M1336.16,1880.12a22.25,22.25,0,0,0,22.94,16.59h0l104.41-23.81-1.74-13.85-3.18-25.55-.35-3-106.19,22.7A22.14,22.14,0,0,0,1336.16,1880.12Z" transform="translate(-199.51 -548.55)"/><path class="cls-21" d="M1379.54,2039a37.23,37.23,0,0,0-37.24-37.23c-20.56,0-31.85,8.57-36.34,29.08-10.41,47.61-32.26,174.42-32.26,174.42h64.52l40.91-161A37.55,37.55,0,0,0,1379.54,2039Z" transform="translate(-199.51 -548.55)"/><path class="cls-30" d="M1380.57,1891.62h0a25.82,25.82,0,0,1-35.1-9.69L1299,1800.05a25.84,25.84,0,0,1,9.69-35.1h0a25.84,25.84,0,0,1,35.1,9.69l46.45,81.88A25.83,25.83,0,0,1,1380.57,1891.62Z" transform="translate(-199.51 -548.55)"/><path class="cls-14" d="M1266.13,1656.74s28.55-13.17,35.13-4.52-4.38,11.67-4.38,11.67,13.62-1.61,13.09,7.57-34.6-3.36-34.6-3.36,11.29,5.12,4.76,9.18-14-1.23-14-1.23-6.48,3.7-5.41,20.71-9.1,20.77-9.1,20.77,1.22-25.77-3.76-32.66S1250.19,1652.43,1266.13,1656.74Z" transform="translate(-199.51 -548.55)"/><path class="cls-13" d="M1262.32,1700.71c2.77,4.34,3.51,7.39.1,9.56a8.82,8.82,0,0,1-11.84-2.85c-2.77-4.33-2.26-9.61,1.15-11.79S1259.55,1696.37,1262.32,1700.71Z" transform="translate(-199.51 -548.55)"/><path class="cls-31" d="M1253.42,1700.37s3.5-.52,5.9,4a13.17,13.17,0,0,0-4.9,0" transform="translate(-199.51 -548.55)"/><path class="cls-19" d="M1280.05,1691.61c0,1.64.86,3,1.92,3s1.93-1.34,1.93-3-.86-3-1.93-3S1280.05,1690,1280.05,1691.61Z" transform="translate(-199.51 -548.55)"/><path class="cls-32" d="M1281.28,1710.3s2.87,5.58,10.11,4.27" transform="translate(-199.51 -548.55)"/><path class="cls-32" d="M1288.23,1692.74l3.64,10.52a2.45,2.45,0,0,1-1,2.85l-3,1.93" transform="translate(-199.51 -548.55)"/><path class="cls-32" d="M1277,1686.66s4.06-2.84,7.93-1" transform="translate(-199.51 -548.55)"/><path class="cls-19" d="M1300,1691.61c0,1.64-.87,3-1.93,3s-1.93-1.34-1.93-3,.86-3,1.93-3S1300,1690,1300,1691.61Z" transform="translate(-199.51 -548.55)"/><path class="cls-32" d="M1301.75,1686.49a6.15,6.15,0,0,0-6.69-.87" transform="translate(-199.51 -548.55)"/><path class="cls-30" d="M1239.25,1899.1h0a25.83,25.83,0,0,1-32.12-17.16l-27.34-90.08a25.82,25.82,0,0,1,17.16-32.11h0a25.83,25.83,0,0,1,32.12,17.16l27.34,90.08A25.82,25.82,0,0,1,1239.25,1899.1Z" transform="translate(-199.51 -548.55)"/><path class="cls-17" d="M1283.11,1702.47c-.51,1.52-3.35,1.93-6.36.92s-5-3.05-4.53-4.56,3.36-1.92,6.36-.92S1283.62,1701,1283.11,1702.47Z" transform="translate(-199.51 -548.55)"/><path class="cls-17" d="M1301.26,1697.86v5.84c-2.46.29-4.48-.39-4.82-1.67C1296.08,1700.51,1298.22,1698.65,1301.26,1697.86Z" transform="translate(-199.51 -548.55)"/><polygon class="cls-13" points="1184.66 1665.91 1183.37 1640.98 1233.69 1640.98 1234.49 1665.91 1184.66 1665.91"/><polygon class="cls-17" points="1234.16 1655.48 1183.37 1640.98 1233.69 1640.98 1234.16 1655.48"/><polygon class="cls-13" points="1073.88 1681.67 1078 1656.74 1127.11 1656.74 1120.86 1681.67 1073.88 1681.67"/><polygon class="cls-11" points="1083.87 1208.25 1074.76 1208.25 1073.96 1209.98 1078.16 1213.1 1081.74 1213.1 1084.73 1209.45 1083.87 1208.25"/><polygon class="cls-17" points="1124.11 1668.72 1078 1656.74 1127.11 1656.74 1124.11 1668.72"/><polygon class="cls-8" points="1051 1193.27 1079.64 1203.81 1074.42 1215.77 1049.74 1195.9 1051 1193.27"/><polygon class="cls-8" points="1091.12 1196.17 1092.49 1198.98 1085.07 1214.63 1079.64 1203.81 1091.12 1196.17"/><polygon class="cls-11" points="1081.74 1213.1 1095.31 1318.44 1084.73 1332.08 1070.98 1319.71 1078.16 1213.1 1081.74 1213.1"/><line class="cls-32" x1="1021.66" y1="1265.03" x2="1006.59" y2="1327.29"/><line class="cls-32" x1="1127.56" y1="1302.83" x2="1128.85" y2="1265.03"/><path class="cls-33" d="M1273.39,2230.22l-4.42,18.17h65.92a14.85,14.85,0,0,0-14.48-18.17h-47Z" transform="translate(-199.51 -548.55)"/><path class="cls-33" d="M1384.17,2214.46v19.79h69l-.09-1.63a19.15,19.15,0,0,0-19.12-18.16h-49.83Z" transform="translate(-199.51 -548.55)"/><path class="cls-34" d="M1435,2218.4s1.51-6.58,5.22-4.79-5,5-5,5l5.16,3.57" transform="translate(-199.51 -548.55)"/><path class="cls-34" d="M1435,2218.4s-1.5-6.58-5.21-4.79,5,5,5,5l-5.17,3.57" transform="translate(-199.51 -548.55)"/><path class="cls-34" d="M1319.9,2234.9s1.5-6.58,5.21-4.79-5,5-5,5l5.17,3.57" transform="translate(-199.51 -548.55)"/><path class="cls-34" d="M1319.9,2234.9s-1.5-6.58-5.21-4.79,5,5,5,5l-5.16,3.57" transform="translate(-199.51 -548.55)"/><path class="cls-30" d="M1294.79,1746.94s2.69,28.17,7,70.71,4.08,108.94,17.82,121.68c0,0,14.15,1.05,42.81,9.5,0,0-8-26.94-17.83-42.19S1330,1762.76,1330,1762.76Z" transform="translate(-199.51 -548.55)"/><polygon class="cls-1" points="1097.6 1222.2 1100.93 1255.36 1090.35 1246.35 1091.12 1222.84 1097.6 1222.2"/><path class="cls-30" d="M1240.61,1745.28s10.58,45.62,15.76,87.92,3.42,83.22,16.75,108.06c0,0-53.46,9.61-53.34,31.18,0,0-15.07-16.62-15.2-39.39s-8.89-173.14-8.89-173.14Z" transform="translate(-199.51 -548.55)"/><path class="cls-35" d="M1404,1863.65s-117,20.18-141.12,95.16c-41.68,129.41,44.72,555.17-393.91,575.52" transform="translate(-199.51 -548.55)"/><path class="cls-10" d="M1322.28,1770.11h192a0,0,0,0,1,0,0V1835a91.31,91.31,0,0,1-91.31,91.31h-9.42a91.31,91.31,0,0,1-91.31-91.31v-64.85A0,0,0,0,1,1322.28,1770.11Z" transform="translate(2375.42 -722.62) rotate(67.27)"/><path class="cls-36" d="M1551.31,1891.62l-70.68-168.72a4.55,4.55,0,0,0-6-2.44l-26.36,11a4.55,4.55,0,0,0-2.43,6l70.68,168.72a4.55,4.55,0,0,0,6,2.44l26.36-11A4.55,4.55,0,0,0,1551.31,1891.62Z" transform="translate(-199.51 -548.55)"/><path class="cls-10" d="M1476.37,1724.81l70.6,168.51-26.14,11-70.6-168.52,26.14-11m.06-1.76a1.71,1.71,0,0,0-.62.12l-26.35,11a1.62,1.62,0,0,0-.87,2.11L1519.28,1905a1.62,1.62,0,0,0,1.49,1,1.68,1.68,0,0,0,.62-.13l26.35-11a1.61,1.61,0,0,0,.86-2.11L1477.92,1724a1.6,1.6,0,0,0-1.49-1Z" transform="translate(-199.51 -548.55)"/><path class="cls-37" d="M1391.75,1806.18a15.25,15.25,0,0,0,3.48-26.11,15,15,0,0,0-8.94-3.2A14.88,14.88,0,0,0,1380,1778a15.24,15.24,0,0,0-3.49,26.09,15,15,0,0,0,8.91,3.21A14.72,14.72,0,0,0,1391.75,1806.18Z" transform="translate(-199.51 -548.55)"/><path class="cls-22" d="M1385.37,1807.33l9.86-27.26a15,15,0,0,0-8.94-3.2l-9.83,27.25A15,15,0,0,0,1385.37,1807.33Z" transform="translate(-199.51 -548.55)"/><path class="cls-37" d="M1429.61,1896.56a15.27,15.27,0,0,1,21.06,15.84,15.07,15.07,0,0,1-4,8.61,14.8,14.8,0,0,1-5.27,3.71,15.25,15.25,0,0,1-21.05-15.81,15,15,0,0,1,4-8.61A14.86,14.86,0,0,1,1429.61,1896.56Z" transform="translate(-199.51 -548.55)"/><path class="cls-22" d="M1424.32,1900.3l26.35,12.1a15.07,15.07,0,0,1-4,8.61l-26.32-12.1A15,15,0,0,1,1424.32,1900.3Z" transform="translate(-199.51 -548.55)"/><path class="cls-36" d="M1479,1863.9l-29.33-70a3,3,0,0,0-3.9-1.59h0a3,3,0,0,0-1.6,3.9l29.34,70a3,3,0,0,0,3.9,1.59h0A3,3,0,0,0,1479,1863.9Z" transform="translate(-199.51 -548.55)"/><path class="cls-36" d="M1465.63,1869.51l-29.33-70a3,3,0,0,0-3.9-1.59h0a3,3,0,0,0-1.59,3.89l29.33,70a3,3,0,0,0,3.9,1.59h0A3,3,0,0,0,1465.63,1869.51Z" transform="translate(-199.51 -548.55)"/><path class="cls-36" d="M1452.25,1875.11l-29.34-70a3,3,0,0,0-3.89-1.6h0a3,3,0,0,0-1.6,3.9l29.34,70a3,3,0,0,0,3.89,1.59h0A3,3,0,0,0,1452.25,1875.11Z" transform="translate(-199.51 -548.55)"/><path class="cls-36" d="M1438.86,1880.72l-29.33-70a3,3,0,0,0-3.9-1.6h0a3,3,0,0,0-1.6,3.9l29.34,70a3,3,0,0,0,3.89,1.6h0A3,3,0,0,0,1438.86,1880.72Z" transform="translate(-199.51 -548.55)"/><path class="cls-36" d="M1425.47,1886.33l-29.33-70a3,3,0,0,0-3.9-1.6h0a3,3,0,0,0-1.59,3.9l29.33,70a3,3,0,0,0,3.9,1.6h0A3,3,0,0,0,1425.47,1886.33Z" transform="translate(-199.51 -548.55)"/><path class="cls-36" d="M1412.09,1891.94l-29.34-70a3,3,0,0,0-3.89-1.59h0a3,3,0,0,0-1.6,3.9l29.33,70a3,3,0,0,0,3.9,1.6h0A3,3,0,0,0,1412.09,1891.94Z" transform="translate(-199.51 -548.55)"/><path class="cls-10" d="M1489.09,1764.1c4,9.58,2.84,19.2-2.62,21.48s-13.14-3.62-17.15-13.2-2.84-19.19,2.62-21.48S1485.08,1754.53,1489.09,1764.1Z" transform="translate(-199.51 -548.55)"/><path class="cls-10" d="M1527.88,1856.7c-4-9.58-11.69-15.49-17.15-13.2s-6.63,11.9-2.62,21.48,11.69,15.48,17.15,13.2S1531.89,1866.27,1527.88,1856.7Z" transform="translate(-199.51 -548.55)"/><path class="cls-13" d="M1342,1856.55l.76,35.65h.12c9.28-.59,32.64,4.55,41.15,6.51a4.68,4.68,0,0,0,5-2l10.36-15.55a10.14,10.14,0,0,0,1.41-8.23l-3.09-12.19a1.65,1.65,0,0,0-2.76-.73l-6.81,7.32a2.94,2.94,0,0,1-3.75.44l-10.6-6.84,18.12-.28a2,2,0,0,0,2-1.88l.09-1.49a2,2,0,0,0-1.72-2.19l-31.5-4.22-17.69,5.77Z" transform="translate(-199.51 -548.55)"/><path class="cls-30" d="M1208.65,1876.71c-.51,13.7,9,25.31,21.13,25.73l115.68-3.23-1.06-49.5-109.44-.62C1222.84,1848.67,1209.12,1863,1208.65,1876.71Z" transform="translate(-199.51 -548.55)"/><polyline class="cls-38" points="1058.54 1300.67 1051.19 1300.67 1037.59 1254.84"/><path class="cls-38" d="M1262.1,1901.53s-34.25,3.07-43.88-3.37-15.77-31.59-15.77-31.59" transform="translate(-199.51 -548.55)"/></g><polygon class="cls-22" points="1020.36 1274.82 1028.77 1291.86 1047.57 1294.59 1033.96 1307.85 1037.18 1326.58 1020.36 1317.73 1003.54 1326.58 1006.75 1307.85 993.15 1294.59 1011.95 1291.86 1020.36 1274.82"/><polygon class="cls-22" points="1082.15 1274.82 1090.56 1291.86 1109.37 1294.59 1095.76 1307.85 1098.97 1326.58 1082.15 1317.73 1065.34 1326.58 1068.55 1307.85 1054.94 1294.59 1073.75 1291.86 1082.15 1274.82"/><polygon class="cls-22" points="1143.95 1274.82 1152.36 1291.86 1171.16 1294.59 1157.56 1307.85 1160.77 1326.58 1143.95 1317.73 1127.13 1326.58 1130.35 1307.85 1116.74 1294.59 1135.54 1291.86 1143.95 1274.82"/><rect class="cls-1" x="996.89" y="1246.63" width="170.53" height="12.46"/><polygon class="cls-40" points="942.91 986 604.82 1210.74 266.79 986 942.91 986"/><polygon class="cls-40" points="942.91 986 604.82 761.26 266.79 986 942.91 986"/><rect class="cls-41" x="377.34" y="743.29" width="455.03" height="642.09"/><path class="cls-42" d="M855.86,1555.62a38.56,38.56,0,0,0-2,9.83q0,9.43,11.4,9.43,8.25,0,16.89-6.09a59.77,59.77,0,0,0,15.53-16.7,104.69,104.69,0,0,0,11.41-24.58,96,96,0,0,0,4.51-29.67q0-23.19-8.25-41.07A89.4,89.4,0,0,0,883,1426.5a98.33,98.33,0,0,0-32.82-18.87,119.39,119.39,0,0,0-39.5-6.48,112.23,112.23,0,0,0-82.94,35.18,118.47,118.47,0,0,0-24,38.32,129,129,0,0,0-8.65,47.56,124.84,124.84,0,0,0,9.06,48,112.76,112.76,0,0,0,62.41,62.69,120.39,120.39,0,0,0,46.29,8.84,136.56,136.56,0,0,0,53-10.22q24.62-10.2,38.79-29.48h30.66a107.9,107.9,0,0,1-21.42,27.13,131.73,131.73,0,0,1-29.67,20.63,167.4,167.4,0,0,1-35,13.17,150.66,150.66,0,0,1-37.35,4.71A146.93,146.93,0,0,1,707.08,1625a147.09,147.09,0,0,1-42.66-104.37,140.23,140.23,0,0,1,11.6-56.79,146.68,146.68,0,0,1,77.83-77.24,141.36,141.36,0,0,1,56.4-11.4,148.18,148.18,0,0,1,51.89,9,136.56,136.56,0,0,1,42.65,25,118.19,118.19,0,0,1,28.89,37.73,107.82,107.82,0,0,1,10.62,47.76q0,25.17-9.24,45.61a123.24,123.24,0,0,1-23.2,35,106.5,106.5,0,0,1-30.06,22.41q-16.14,7.86-29.88,7.86a24.65,24.65,0,0,1-17.29-6.48q-7.1-6.49-7.47-18.67h-1.57A111.75,111.75,0,0,1,804,1597.68a51,51,0,0,1-66.62-10.22A59.25,59.25,0,0,1,726.73,1568a76,76,0,0,1-3.74-24.17,119.69,119.69,0,0,1,6.29-38.13,112.44,112.44,0,0,1,17.7-33.61,89.58,89.58,0,0,1,27.7-23.78,73.78,73.78,0,0,1,36.36-9,47.86,47.86,0,0,1,25.16,6.88q11.4,6.87,16.9,23h.79l6.28-22.41h28.7ZM813,1469.93a48.18,48.18,0,0,0-24.37,6.09,55.22,55.22,0,0,0-17.89,16.51,78.06,78.06,0,0,0-11,23.59,99.18,99.18,0,0,0-3.74,27.32q0,14.54,6.48,23t21.43,8.45a37.78,37.78,0,0,0,21.82-6.88,66.16,66.16,0,0,0,17.09-17.1,83.21,83.21,0,0,0,11-22.6,78.54,78.54,0,0,0,3.95-23.78q0-13.76-6.1-24.17T813,1469.93Z" transform="translate(-199.51 -548.55)"/><polygon class="cls-22" points="942.91 986 942.91 1435.48 266.79 1435.48 266.79 986 604.82 1210.74 942.91 986"/><polygon class="cls-37" points="266.79 1435.48 604.82 1210.74 942.91 1435.48 266.79 1435.48"/><polygon class="cls-29" points="1469.83 786.53 1470.09 746.37 1422.97 753.32 1469.83 786.53"/><path class="cls-13" d="M1414.38,1144.57l-4.25-12.46s-7.66-11.91-10-16.52c-1.28-2.6-5.47-9.24-6.56-10.06-.85-.66-3.35-.41-3.57.62-.28,1.34,1.83,8.76,2.6,11.68l2.93,11.11s-16.1-14.62-21.21-19.82c-2.88-2.93-10.91-11.85-13.08-10-1.66,1.43,5.55,11.46,8,14.92,2.23,3.18,8.85,12.77,8.85,12.77l-15-15.57c-2.72-2.83-9.78-12.29-12.26-10.27s5.16,10.82,7.38,14l12.51,18.21-16-15.93c-2.22-2.21-8-9.63-10.17-7.58s4.53,8.82,6.48,11.33l13.39,17.25-11.9-11.19c-1.27-1.2-5.17-4.65-6.31-3.37-1.55,1.75,3.37,6.79,4.83,8.66l12.09,15.47a20,20,0,0,0,3.33,3.36L1387,1171.8Z" transform="translate(-199.51 -548.55)"/><path class="cls-15" d="M1573.23,1288.31l-159.47,101a44.65,44.65,0,1,0,47.28,74.23l183.84-96.36Z" transform="translate(-199.51 -548.55)"/><path class="cls-15" d="M1386.52,1436.7a44.65,44.65,0,1,1,88.86-6.29l-2.64,199.49H1398.4Z" transform="translate(-199.51 -548.55)"/><path class="cls-21" d="M1657.77,1366.3l-99.89,119.48a50.13,50.13,0,0,1-70.4,6.29h0a50.14,50.14,0,0,1-6.29-70.41l99.89-119.47a50.13,50.13,0,0,1,70.4-6.29h0A50.13,50.13,0,0,1,1657.77,1366.3Z" transform="translate(-199.51 -548.55)"/><polygon class="cls-1" points="1376.52 548.05 1329.27 569.32 1335.79 761.24 1470.09 763.32 1488.83 553.21 1424.85 544.54 1376.52 548.05"/><path class="cls-13" d="M1576,1068.87v30s1.79,6.47,17,6.53,31.29-10.05,31.29-10.05l-4.71-65.54Z" transform="translate(-199.51 -548.55)"/><polygon class="cls-17" points="1376.52 546.19 1407.65 513.87 1376.52 513.47 1376.52 546.19"/><path class="cls-13" d="M1563.29,1008.58v42.2c0,8.51,2.38,21.14,12,24.06s22.71-1.07,31.89-11,29.53-55,1.22-71.6S1564,1004.19,1563.29,1008.58Z" transform="translate(-199.51 -548.55)"/><path class="cls-30" d="M1499.2,1271.25a26.69,26.69,0,0,1-34-.26h0l-84-97.22,11.54-12.16,21.23-22.43,2.44-2.62L1503,1234A26.56,26.56,0,0,1,1499.2,1271.25Z" transform="translate(-199.51 -548.55)"/><path class="cls-21" d="M1469.37,1449.31a44.68,44.68,0,0,1,44.68-44.68c24.67,0,38.21,10.29,43.59,34.9,12.5,57.13,38.71,209.27,38.71,209.27h-77.41l-49.08-193.2A45,45,0,0,1,1469.37,1449.31Z" transform="translate(-199.51 -548.55)"/><path class="cls-30" d="M1468.13,1272.47h0a31,31,0,0,0,42.11-11.63L1566,1162.6a31,31,0,0,0-11.62-42.1h0a31,31,0,0,0-42.11,11.62l-55.73,98.24A31,31,0,0,0,1468.13,1272.47Z" transform="translate(-199.51 -548.55)"/><path class="cls-14" d="M1605.43,990.66s-34.25-15.8-42.15-5.43,5.26,14,5.26,14-16.33-1.93-15.7,9.08,41.51-4,41.51-4-13.55,6.14-5.72,11,16.8-1.48,16.8-1.48,7.77,4.44,6.5,24.85,10.91,24.92,10.91,24.92-1.46-30.92,4.51-39.18S1624.56,985.49,1605.43,990.66Z" transform="translate(-199.51 -548.55)"/><path class="cls-13" d="M1610,1043.41c-3.32,5.21-4.21,8.87-.12,11.48a10.58,10.58,0,0,0,14.2-3.42c3.33-5.2,2.71-11.54-1.38-14.15S1613.34,1038.21,1610,1043.41Z" transform="translate(-199.51 -548.55)"/><path class="cls-43" d="M1620.68,1043s-4.2-.62-7.07,4.76a15.85,15.85,0,0,1,5.88,0" transform="translate(-199.51 -548.55)"/><ellipse class="cls-19" cx="1386.92" cy="483.95" rx="2.31" ry="3.58"/><path class="cls-44" d="M1587.25,1054.92s-3.43,6.69-12.12,5.12" transform="translate(-199.51 -548.55)"/><path class="cls-44" d="M1578.91,1033.86l-4.35,12.61a2.94,2.94,0,0,0,1.17,3.43l3.56,2.31" transform="translate(-199.51 -548.55)"/><path class="cls-44" d="M1592.38,1026.56s-4.87-3.41-9.51-1.25" transform="translate(-199.51 -548.55)"/><ellipse class="cls-19" cx="1367.65" cy="483.95" rx="2.31" ry="3.58"/><path class="cls-44" d="M1562.7,1026.36a7.37,7.37,0,0,1,8-1" transform="translate(-199.51 -548.55)"/><path class="cls-30" d="M1717,1271.18h0a31,31,0,0,0,22.15-37.65L1710.8,1124.2a31,31,0,0,0-37.66-22.15h0A31,31,0,0,0,1651,1139.7L1679.35,1249A31,31,0,0,0,1717,1271.18Z" transform="translate(-199.51 -548.55)"/><path class="cls-13" d="M1758,1355.91l36.39-22.5.08.12c5.46,9.73,25.87,29.9,33.4,37.19a5.6,5.6,0,0,1,1.21,6.29l-8.89,20.57a12.2,12.2,0,0,1-7.37,6.8l-14.29,4.84a2,2,0,0,1-2.54-2.3l2.93-11.64a3.54,3.54,0,0,0-2-4.07l-13.81-6.2,11.55,18.42a2.46,2.46,0,0,1-.59,3.23l-1.45,1.07a2.45,2.45,0,0,1-3.33-.3l-24.8-29-5.74-21.58S1758.5,1356.55,1758,1355.91Z" transform="translate(-199.51 -548.55)"/><path class="cls-17" d="M1585.06,1045.53c.61,1.82,4,2.31,7.63,1.1s6-3.66,5.44-5.47-4-2.31-7.64-1.1S1584.45,1043.72,1585.06,1045.53Z" transform="translate(-199.51 -548.55)"/><path class="cls-17" d="M1563.29,1040v7c3,.34,5.37-.47,5.78-2C1569.51,1043.17,1566.93,1040.94,1563.29,1040Z" transform="translate(-199.51 -548.55)"/><polygon class="cls-13" points="1264.31 1111.27 1265.85 1081.35 1205.47 1081.35 1204.52 1111.27 1264.31 1111.27"/><polygon class="cls-17" points="1204.91 1098.74 1265.85 1081.35 1205.47 1081.35 1204.91 1098.74"/><polygon class="cls-13" points="1397.22 1130.17 1392.28 1100.26 1333.35 1100.26 1340.85 1130.17 1397.22 1130.17"/><polygon class="cls-11" points="1385.23 562.16 1396.16 562.16 1397.12 564.24 1392.09 567.99 1387.79 567.99 1384.19 563.6 1385.23 562.16"/><polygon class="cls-17" points="1336.95 1114.63 1392.28 1100.26 1333.35 1100.26 1336.95 1114.63"/><path class="cls-30" d="M1691.34,1208.52c13.45-9.45,31.35-7.42,39.68,4.5l72.23,118.58-50.53,31.22-72-109.78C1672.36,1241.12,1677.82,1218,1691.34,1208.52Z" transform="translate(-199.51 -548.55)"/><polygon class="cls-8" points="1424.67 544.19 1390.3 556.83 1396.56 571.18 1426.18 547.35 1424.67 544.19"/><polygon class="cls-8" points="1376.53 547.67 1374.88 551.04 1383.79 569.82 1390.3 556.83 1376.53 547.67"/><polygon class="cls-11" points="1387.79 567.99 1371.5 694.37 1384.19 710.73 1400.69 695.89 1392.09 567.99 1387.79 567.99"/><line class="cls-44" x1="1459.87" y1="630.29" x2="1477.95" y2="704.99"/><line class="cls-44" x1="1332.81" y1="675.64" x2="1331.27" y2="630.29"/><path class="cls-33" d="M1596.73,1678.72l5.29,21.8h-79.08a17.82,17.82,0,0,1,17.37-21.8h56.42Z" transform="translate(-199.51 -548.55)"/><path class="cls-33" d="M1463.82,1659.81v23.75H1381l.1-2a23,23,0,0,1,22.94-21.79h59.8Z" transform="translate(-199.51 -548.55)"/><path class="cls-45" d="M1402.84,1664.54s-1.81-7.89-6.26-5.75,6,6,6,6l-6.2,4.28" transform="translate(-199.51 -548.55)"/><path class="cls-45" d="M1402.84,1664.54s1.8-7.89,6.25-5.75-6,6-6,6l6.2,4.28" transform="translate(-199.51 -548.55)"/><path class="cls-45" d="M1540.92,1684.33s-1.8-7.89-6.25-5.75,6,6,6,6l-6.2,4.29" transform="translate(-199.51 -548.55)"/><path class="cls-45" d="M1540.92,1684.33s1.81-7.89,6.26-5.75-6,6-6,6l6.2,4.29" transform="translate(-199.51 -548.55)"/><path class="cls-30" d="M1571.06,1098.89s-3.24,33.8-8.47,84.84-4.89,130.7-21.37,146c0,0-17,1.27-51.37,11.4,0,0,9.61-32.32,21.39-50.62s17.54-172.62,17.54-172.62Z" transform="translate(-199.51 -548.55)"/><polygon class="cls-1" points="1368.75 578.89 1364.76 618.69 1377.45 607.88 1376.53 579.67 1368.75 578.89"/><path class="cls-30" d="M1636.54,1094.73s-13.18,56.9-19.39,107.65-4.11,99.84-20.1,129.64c0,0,64.14,11.54,64,37.42,0,0,18.09-20,18.24-47.26s9.06-220.43,9.06-220.43Z" transform="translate(-199.51 -548.55)"/><line class="cls-46" x1="1320.97" y1="694.26" x2="1329.27" y2="649.94"/><line class="cls-46" x1="1479.84" y1="700.49" x2="1468.91" y2="649.94"/><rect class="cls-15" x="161.93" y="1435.48" width="1810.17" height="40.74" rx="19.35"/><path class="cls-21" d="M1812.61,1828.88v-46.29q0-20.49,3-34.15a91.63,91.63,0,0,1,9.1-24.67,95.41,95.41,0,0,1,16.32-21.25q10.23-10.24,25.42-24.66,12.13-11.38,24.29-23.15a246.33,246.33,0,0,0,22-24.28,131.7,131.7,0,0,0,16.32-26.56,74.72,74.72,0,0,0,6.45-31.5,80,80,0,0,0-6.45-32.25,82.22,82.22,0,0,0-17.07-25.43A77.09,77.09,0,0,0,1886.6,1498a82.16,82.16,0,0,0-31.5-6.07q-37.18,0-60.33,23.53t-27.7,61.47l-77.41-7.59q9.85-66,55-103.6t111.93-37.56a183.14,183.14,0,0,1,59.58,9.48,143.5,143.5,0,0,1,48.18,27.33,125.83,125.83,0,0,1,32.26,44q11.76,26.19,11.77,59.57,0,28.86-8.35,50.47a153.2,153.2,0,0,1-23.53,40.61l-45.53,47-7.59,6.83q-12.15,11.38-19.36,19.35a69.46,69.46,0,0,0-11.38,16.69,66.22,66.22,0,0,0-5.69,19.36,191.66,191.66,0,0,0-1.52,26.56v33.39Zm-14.42,104.73q0-20.49,14.8-35.29t35.29-14.8q20.49,0,35.29,14.8t14.8,35.29q0,20.49-14.8,35.29t-35.29,14.79q-20.49,0-35.29-14.79T1798.19,1933.61Z" transform="translate(-199.51 -548.55)"/><polygon class="cls-21" points="1542.33 1028.38 1567.57 1028.38 1560.1 1010.17 1527.52 1010.17 1542.33 1028.38"/><polygon class="cls-21" points="1623.53 1435.15 1648.77 1435.15 1647.27 1417.5 1625.89 1417.5 1623.53 1435.15"/><polygon class="cls-21" points="1623.53 1334.97 1648.77 1334.97 1647.88 1350.09 1628.33 1350.09 1623.53 1334.97"/><path class="cls-42" d="M1787.37,1828.88v-46.29q0-20.49,3-34.15a91.63,91.63,0,0,1,9.1-24.67,95.41,95.41,0,0,1,16.32-21.25q10.23-10.24,25.42-24.66,12.13-11.38,24.29-23.15a246.33,246.33,0,0,0,22-24.28,131.7,131.7,0,0,0,16.32-26.56,74.72,74.72,0,0,0,6.45-31.5,80,80,0,0,0-6.45-32.25,82.22,82.22,0,0,0-17.07-25.43,77.09,77.09,0,0,0-25.43-16.69,82.16,82.16,0,0,0-31.5-6.07q-37.18,0-60.33,23.53t-27.7,61.47l-77.41-7.59q9.86-66,55-103.6t111.93-37.56a183.14,183.14,0,0,1,59.58,9.48,143.5,143.5,0,0,1,48.18,27.33,125.83,125.83,0,0,1,32.26,44q11.76,26.19,11.77,59.57,0,28.86-8.35,50.47a153.2,153.2,0,0,1-23.53,40.61l-45.53,47-7.59,6.83q-12.15,11.38-19.36,19.35a69.46,69.46,0,0,0-11.38,16.69,66.22,66.22,0,0,0-5.69,19.36,191.66,191.66,0,0,0-1.52,26.56v33.39ZM1773,1933.61q0-20.49,14.8-35.29t35.29-14.8q20.49,0,35.29,14.8t14.8,35.29q0,20.49-14.8,35.29T1823,1983.69q-20.49,0-35.29-14.79T1773,1933.61Z" transform="translate(-199.51 -548.55)"/><path class="cls-21" d="M2052.15,1932.34q0-21,15.19-36.15c10.07-10.13,22.16-15.2,36.16-15.2s26.08,5.07,36.15,15.2,15.2,22.16,15.2,36.15-5.07,26.09-15.2,36.19-22.16,15.16-36.15,15.16a49.22,49.22,0,0,1-36.16-15.16Q2052.15,1953.38,2052.15,1932.34Zm87.12-112h-74.65V1428.18h74.65Z" transform="translate(-199.51 -548.55)"/><rect class="cls-21" x="1878.74" y="1332.45" width="25.24" height="102.7"/><path class="cls-42" d="M2026.9,1932.34q0-21,15.2-36.15c10.07-10.13,22.16-15.2,36.15-15.2s26.09,5.07,36.16,15.2,15.19,22.16,15.19,36.15-5.06,26.09-15.19,36.19a49.22,49.22,0,0,1-36.16,15.16c-14,0-26.08-5-36.15-15.16S2026.9,1946.37,2026.9,1932.34Zm87.13-112h-74.65V1428.18H2114Z" transform="translate(-199.51 -548.55)"/><path class="cls-13" d="M1239.47,1334.3c1.26,2.23-8.87,14-18.57,19.84-8.22,5-28.39,14.37-34.36,17.1l-16.47-25.72a78.2,78.2,0,0,0,8.53-8.08c6-6.77,24.39-23.32,26.77-20.63s-8,16.55-6,16.85,11.87-8.12,15.8-12,11.1-13.7,14.31-13.2,3.73,5.27,3.73,5.27,2.3-4,4.56-2.16.29,9.09.29,9.09,1-2.37,3,.33-4.65,12.41-4.65,12.41A2.07,2.07,0,0,1,1239.47,1334.3Z" transform="translate(-199.51 -548.55)"/><path class="cls-14" d="M980.88,1181.76c-21.37,1.86-39.93,20-40.19,46S935.72,1267,920,1264c0,0,43.93,25.48,101.82,3,0,0-7.26-8.61-8.28-28.09S980.88,1181.76,980.88,1181.76Z" transform="translate(-199.51 -548.55)"/><path class="cls-11" d="M1093.29,1446.83h0a28.2,28.2,0,0,1-38.09-11.43L1000.11,1333a28.2,28.2,0,0,1,11.43-38.09h0a28.2,28.2,0,0,1,38.09,11.43l55.1,102.37A28.21,28.21,0,0,1,1093.29,1446.83Z" transform="translate(-199.51 -548.55)"/><path class="cls-15" d="M968.07,1480.89c-18.41,24.11-25.35,74.09-13.61,127.92S970.17,1698,970.17,1698a45.46,45.46,0,1,0,90.25-11.08l-18.72-206.07Z" transform="translate(-199.51 -548.55)"/><path class="cls-11" d="M964,1283.27l-49.21,22.29s10.94,126.69,12.07,140.55-3.11,34.78-3.11,34.78H1041.7s-1.42-67.87,6.5-86.82c5.37-12.84,9-20.65,5.94-35.35s-25.87-40.71-22.2-66.16l-25.67-8.22Z" transform="translate(-199.51 -548.55)"/><path class="cls-11" d="M875.32,1467.27h0a28.19,28.19,0,0,1-16.74-36.07l40-109.17a28.2,28.2,0,0,1,36.08-16.74h0a28.2,28.2,0,0,1,16.73,36.08l-40,109.16A28.19,28.19,0,0,1,875.32,1467.27Z" transform="translate(-199.51 -548.55)"/><path class="cls-16" d="M1012.2,1209.86s6.7-16.48-9.4-21.46Z" transform="translate(-199.51 -548.55)"/><path class="cls-13" d="M1006.26,1227.08v57.24s-1.15,12.56-16.06,13.67c-12.87,1-21.08-7.5-24.54-12l-1.82-2.67-.05,0,6.08-56.18Z" transform="translate(-199.51 -548.55)"/><polygon class="cls-17" points="806.74 729.26 781.37 701.67 806.76 711.21 806.74 729.26"/><path class="cls-13" d="M981.09,1256.33c11.86,7,25.85,7,34.29,1.3s7.06-18.65,4.55-26.91l0-.06c-.52-1.71-1.27-4.11-2.1-6.84l-8-26.47c-2.09-8.35-26-27.13-48.65-2.64S969.23,1249.33,981.09,1256.33Z" transform="translate(-199.51 -548.55)"/><path class="cls-14" d="M1009.06,1194s-.31,10-14.33,16.69-27.32,16.91-25.65,31.69-3.38,23.11-3.38,23.11-2.09-18.41-11.38-34c-3.6-6-6.76-18.81-.78-29.82C963,1184.28,987.36,1171.09,1009.06,1194Z" transform="translate(-199.51 -548.55)"/><path class="cls-13" d="M971.48,1239.18c3,4.46,3.87,7.63.38,10a9.22,9.22,0,0,1-12.45-2.65c-3-4.45-2.62-10,.87-12.35S968.47,1234.73,971.48,1239.18Z" transform="translate(-199.51 -548.55)"/><path class="cls-47" d="M963.59,1242.5a6.55,6.55,0,0,1,5.49-.14c-2-5.08-8.13-3-8.13-3" transform="translate(-199.51 -548.55)"/><path class="cls-19" d="M993.51,1226c.55,2,2,3.33,3.35,3s1.89-2.27,1.34-4.28-2.06-3.33-3.36-3S993,1224,993.51,1226Z" transform="translate(-199.51 -548.55)"/><path class="cls-19" d="M1009.79,1219.74c.51,1.85,1.9,3.08,3.09,2.74s1.75-2.1,1.24-4-1.9-3.07-3.1-2.74S1009.27,1217.89,1009.79,1219.74Z" transform="translate(-199.51 -548.55)"/><path class="cls-15" d="M1076.73,1932.52H996.85l-27.42-234.8-.36-5.37a45.32,45.32,0,0,1,46.74-45.33c23.17.66,42.59,19.52,44,42.69Z" transform="translate(-199.51 -548.55)"/><path class="cls-48" d="M986.65,1222.82s2.63-6.11,7.82-5.6" transform="translate(-199.51 -548.55)"/><path class="cls-48" d="M1007.53,1212.62s2.77-1.35,6.76.94" transform="translate(-199.51 -548.55)"/><path class="cls-21" d="M930.86,1932.52H854.63L878.82,1690l.07-.84a45.37,45.37,0,0,1,90.62,3.2,39.53,39.53,0,0,1-.21,4.11Z" transform="translate(-199.51 -548.55)"/><path class="cls-22" d="M1194.27,1383.33l-93.29,59-5.52,4.58c-11.25,7.8-27.74,3.74-36.59-9s-6.85-29.61,4.4-37.41l104.48-58.56,2.32,3.58,16.47,25.72Z" transform="translate(-199.51 -548.55)"/><path class="cls-48" d="M1003,1221.24s3,9.85,9.14,9.45a12.72,12.72,0,0,1-3.51,3.54" transform="translate(-199.51 -548.55)"/><path class="cls-21" d="M1004.71,1480.92l-1.07,6.61-34.21,209.06a45.47,45.47,0,1,1-90.44-9.5s4.13-35.37,4.79-90.48c.53-42.69,10.21-77.13,25.43-99.41a78.88,78.88,0,0,1,14.56-16.28Z" transform="translate(-199.51 -548.55)"/><path class="cls-48" d="M1012,1242.22s-5.71,4.52-12.34-1.32" transform="translate(-199.51 -548.55)"/><path class="cls-17" d="M983.82,1234.74c-.06,2.16,3.34,4,7.58,4.13s7.74-1.54,7.8-3.71-3.34-4-7.58-4.13S983.88,1232.57,983.82,1234.74Z" transform="translate(-199.51 -548.55)"/><path class="cls-17" d="M1015.43,1229.63c.68,1.15,2.41,1.48,4.48,1-.52-1.71-1.27-4.11-2.1-6.84C1015.58,1225.86,1014.53,1228.19,1015.43,1229.63Z" transform="translate(-199.51 -548.55)"/><path class="cls-49" d="M973.5,1249.17a3.46,3.46,0,1,1-4.24-2.45A3.46,3.46,0,0,1,973.5,1249.17Z" transform="translate(-199.51 -548.55)"/><polygon class="cls-13" points="639.77 1435.48 698.62 1435.48 706.25 1423.85 706.08 1435.48 719.04 1435.48 717.88 1401.88 720.72 1383.95 672.79 1383.95 672.61 1401.88 639.77 1435.48"/><path class="cls-7" d="M1008.08,1284.09l-3,60.19L965.66,1286c3.46,4.52,11.67,13,24.54,12C1005.11,1296.88,1008.08,1284.09,1008.08,1284.09Z" transform="translate(-199.51 -548.55)"/><polygon class="cls-8" points="764.65 731.46 794.07 748.97 787.85 759.85 760.5 736.54 764.65 731.46"/><polygon class="cls-8" points="806.74 733.97 794.07 748.97 801.72 758.21 809.71 736.73 806.74 733.97"/><polygon class="cls-24" points="964.89 919.55 806.47 926.19 842.84 805.83 1001.26 799.18 964.89 919.55"/><polygon class="cls-25" points="807.95 920.36 754.23 876.71 907.46 870.29 966.37 913.72 807.95 920.36"/><polygon class="cls-24" points="961.78 917.05 803.36 923.69 839.73 803.33 998.15 796.69 961.78 917.05"/><polygon class="cls-25" points="998.15 796.69 1001.26 799.18 842.84 805.83 806.47 926.19 803.36 923.69 839.73 803.33 998.15 796.69"/><polygon class="cls-10" points="754.23 876.71 752.74 882.54 806.47 926.19 808.23 920.35 754.23 876.71"/><ellipse class="cls-25" cx="1110.11" cy="1412.31" rx="17.58" ry="7.78" transform="translate(-257.72 -500.79) rotate(-2.4)"/><polygon class="cls-13" points="851.44 1435.48 837.37 1425 838.57 1435.48 825.48 1435.48 819.05 1401.88 815.59 1383.95 866.35 1383.95 868.3 1401.88 909.04 1435.48 851.44 1435.48"/><polygon class="cls-14" points="672.61 1401.88 639.77 1435.48 698.62 1435.48 706.25 1423.85 706.08 1435.48 719.04 1435.48 717.88 1401.88 672.61 1401.88"/><polygon class="cls-14" points="851.44 1435.48 837.37 1425 838.57 1435.48 825.48 1435.48 819.05 1401.88 868.3 1401.88 909.04 1435.48 851.44 1435.48"/><path class="cls-13" d="M1071.38,1439.45c2.3,2.35-.17,6.46-.17,6.46s4.28-1.88,4.93,1c.62,2.66-4.43,6.87-5.08,7.41.48-.23,2.11-.81,2.06,2.1,0,3.21-10.1,6.78-11,7.1a2.1,2.1,0,0,1,1.88,2.65c-.39,2.58-15.51,5.93-26.77,4.83-9.5-1-31.18-5.54-37.67-6.92l1.72-30.41a75.25,75.25,0,0,0,12-1.4c8.88-1.85,33.52-4.06,33.81-.48s-16.28,8.49-14.93,9.87,14.35.6,19.85-.16S1069.13,1437.13,1071.38,1439.45Z" transform="translate(-199.51 -548.55)"/><path class="cls-11" d="M1001.76,1424.46l-.53,9.19-1.72,30.41-.45,8.07-117.9-2c-13.68-.47-24.45-13.57-23.94-29.1s12.23-27.84,25.95-27.36l8.89,1.51,0,0Z" transform="translate(-199.51 -548.55)"/><polyline class="cls-48" points="780.12 874.05 723.84 869.33 735.41 837.74"/><line class="cls-48" x1="725.93" y1="922.36" x2="700.35" y2="922.36"/><path class="cls-50" d="M1000.13,1224.67c1.74,3.52,1,7.45-1.69,8.78s-6.27-.45-8-4-1-7.45,1.69-8.78S998.38,1221.15,1000.13,1224.67Z" transform="translate(-199.51 -548.55)"/><path class="cls-50" d="M1016.2,1218.51c1.75,3.52,1,7.45-1.69,8.78s-6.27-.44-8-4-1-7.45,1.69-8.78S1014.46,1215,1016.2,1218.51Z" transform="translate(-199.51 -548.55)"/><line class="cls-50" x1="799.67" y1="674.61" x2="806.18" y2="672.37"/><path class="cls-21" d="M1133.23,829.32q0,12.58-1.25,24.86a244,244,0,0,1-486.81-24.86c0-123.73,92.08-226,211.45-241.87l1.37-.19.65-.08a246.52,246.52,0,0,1,30.55-1.89c1.66,0,3.33,0,5,.05a243.93,243.93,0,0,1,49.58,6.06c1.54.36,3.06.72,4.59,1.11,94.1,23.41,166.6,101.45,181.9,198.49A244.54,244.54,0,0,1,1133.23,829.32Z" transform="translate(-199.51 -548.55)"/><path class="cls-51" d="M1117.71,846q0,12.6-1.25,24.87A244,244,0,0,1,629.66,846c0-123.73,92.07-226,211.44-241.87q.69-.11,1.38-.18l.64-.09A246.68,246.68,0,0,1,873.68,602c1.66,0,3.32,0,5,.06a243.13,243.13,0,0,1,49.57,6.06c1.55.35,3.07.71,4.6,1.1,94.09,23.42,166.6,101.45,181.89,198.5A244.51,244.51,0,0,1,1117.71,846Z" transform="translate(-199.51 -548.55)"/><path class="cls-1" d="M1120,829.32c0,7.94-.41,15.78-1.18,23.52a230.8,230.8,0,0,1-460.4-23.52c0-117,87.08-213.7,200-228.75.43-.07.86-.12,1.3-.17l.61-.09a235.51,235.51,0,0,1,28.89-1.78c1.57,0,3.15,0,4.7.05a230.64,230.64,0,0,1,46.89,5.73c1.46.34,2.9.68,4.35,1,89,22.15,157.56,95.95,172,187.73A231.57,231.57,0,0,1,1120,829.32Z" transform="translate(-199.51 -548.55)"/><ellipse class="cls-33" cx="863.06" cy="652.18" rx="30.45" ry="36.01" transform="translate(-400.41 -91.85) rotate(-26.67)"/><path class="cls-30" d="M1002.44,1030.44a231.09,231.09,0,0,1-228.18-.94c6.25-25.21,15.6-46.2,27.18-62.09a100.26,100.26,0,0,1,16.9-18.25h155.6C990.57,975.7,999.31,1000.75,1002.44,1030.44Z" transform="translate(-199.51 -548.55)"/><polygon class="cls-17" points="614.83 367.73 638.17 373.26 626.5 392.41 614.83 367.73"/><path class="cls-22" d="M872.71,689.67l-60.46,17.8,6.09,241.69h155.6S984.42,741.56,989.27,708L927.2,689.84Z" transform="translate(-199.51 -548.55)"/><path class="cls-13" d="M871.17,688.43l.05,0c.69,1.22,12.47,21.07,34.76,19.41,19.72-1.48,21.2-18.06,21.2-18.06v-75.5l-55.73,1.78Z" transform="translate(-199.51 -548.55)"/><polygon class="cls-8" points="672.29 136.47 700.95 158.56 693.25 181.38 665.08 141.77 672.29 136.47"/><polygon class="cls-8" points="727.67 136.47 700.95 158.56 709.93 181.38 731.96 142.54 727.67 136.47"/><polygon class="cls-17" points="727.67 134.12 690.91 103.92 727.67 108.79 727.67 134.12"/><path class="cls-22" d="M1040.81,916.56l-.4.13A33.76,33.76,0,0,1,998,895.07L951.46,751.63a33.74,33.74,0,0,1,21.62-42.4l.4-.13a33.77,33.77,0,0,1,42.4,21.62l46.55,143.44A33.75,33.75,0,0,1,1040.81,916.56Z" transform="translate(-199.51 -548.55)"/><path class="cls-13" d="M824.75,929.53l34-15.26L879,923.69l4.83,17.62s-2.1,1.82-5.1-.43c-2.73-2-7.22-9-7.22-9L862,930.69l-4,2.53,16.89,8.33s4.89,12,3.84,16.51c-.27,1.17-.68,3.2-3.68,1.7a38.71,38.71,0,0,1-3.66-2.4s-.08,4-.81,5a3.13,3.13,0,0,1-5.48-1.25c-1-2.86-1.63-10.23-1.63-10.23l-14.89,4.17,10,4.72L859.91,973s-6.69,3-8.24-7c0,0-6.7-4.71-22.63.9s-25.09,3.32-35.63-4.4Z" transform="translate(-199.51 -548.55)"/><polyline class="cls-52" points="671.89 408.82 669.54 396.51 653.97 393.79"/><path class="cls-22" d="M832.19,924.83,736.76,817.76c-11.71-12.37-32.77-11.68-46.85,1.57S674,853.62,685.66,866l102.67,105Z" transform="translate(-199.51 -548.55)"/><rect class="cls-22" x="734.01" y="682.69" width="67.73" height="218.11" rx="33.65" transform="translate(524.26 1345.27) rotate(-133.59)"/><path class="cls-33" d="M944.4,599.82s14.55-19.48-5-31.63Z" transform="translate(-199.51 -548.55)"/><path class="cls-13" d="M887.2,650.55c13.27,13.35,31.79,18.17,44.92,13.57s15.78-22.24,15.3-34V630c-.11-2.44-.26-5.87-.42-9.76-.58-15.23-1.44-37.78-1.44-37.78.12-11.76-25-44.87-63.44-20.28S873.92,637.2,887.2,650.55Z" transform="translate(-199.51 -548.55)"/><path class="cls-33" d="M945.72,577.73s-3.86,13.13-24.71,17.13-42,12.94-44.87,33.07-12.46,29.4-12.46,29.4,3.6-25.08-3.31-48.92c-2.67-9.24-2.44-27.22,9.27-39.71C888.12,549,924.92,540,945.72,577.73Z" transform="translate(-199.51 -548.55)"/><path class="cls-13" d="M880.41,624.55c2.45,6.94,2.49,11.42-2.95,13.35a12.62,12.62,0,0,1-15.56-7.8c-2.45-6.94,0-14.12,5.43-16S878,617.62,880.41,624.55Z" transform="translate(-199.51 -548.55)"/><path class="cls-53" d="M868.83,626.22a9,9,0,0,1,7.31,1.71c-.93-7.43-9.71-6.82-9.71-6.82" transform="translate(-199.51 -548.55)"/><path class="cls-16" d="M912.69,613.75c0,2.84,1.57,5.12,3.4,5.09s3.3-2.35,3.25-5.19-1.57-5.12-3.41-5.1S912.64,610.91,912.69,613.75Z" transform="translate(-199.51 -548.55)"/><path class="cls-16" d="M936.92,611.16c.05,2.84,1.57,5.12,3.41,5.09s3.29-2.35,3.25-5.19-1.57-5.12-3.41-5.09S936.88,608.32,936.92,611.16Z" transform="translate(-199.51 -548.55)"/><path class="cls-54" d="M906.12,608.15s5.6-7.17,12.28-4.72" transform="translate(-199.51 -548.55)"/><path class="cls-54" d="M937.07,601.68s4-1.24,8.92,2.73" transform="translate(-199.51 -548.55)"/><path class="cls-54" d="M928.35,611.71s.55,14.07,8.83,15.66a17.52,17.52,0,0,1-5.86,3.47" transform="translate(-199.51 -548.55)"/><path class="cls-54" d="M932.9,642.54s-9.12,4-15.88-6" transform="translate(-199.51 -548.55)"/><path class="cls-17" d="M898.27,622.93c-.83,2.84,3,6.46,8.6,8.08s10.76.63,11.59-2.21-3-6.46-8.6-8.08S899.1,620.09,898.27,622.93Z" transform="translate(-199.51 -548.55)"/><path class="cls-17" d="M941.84,627.09c.51,1.76,2.69,2.78,5.58,2.9-.11-2.44-.26-5.87-.42-9.76C943.35,622.15,941.15,624.88,941.84,627.09Z" transform="translate(-199.51 -548.55)"/><path class="cls-55" d="M826.4,802s12.94,23.12,47.28,14.48" transform="translate(-199.51 -548.55)"/><path class="cls-55" d="M919.71,813.75s34,18.37,52.24-6.27" transform="translate(-199.51 -548.55)"/><path class="cls-13" d="M1209.67,769.44s7.31-11.9,4.8-15-3.59-.21-3.59-.21,1.93-8.67-.87-10.79-5.26,2.84-5.26,2.84-.89-5.64-4.75-6-11.75,11.65-16.22,16.56S1168,772.28,1165.7,772s9.15-17.37,6.19-20.4-23.87,17.71-30.57,26.14a99.65,99.65,0,0,1-10.42,10.79l20.91,29.37c5.35-2.79,30.8-16.13,40.77-22.85,11.16-7.53,22.49-22.1,20.9-24.72A2.5,2.5,0,0,0,1209.67,769.44Z" transform="translate(-199.51 -548.55)"/><path class="cls-22" d="M1008,859.6c-12.93,10-14.27,30.11-3,44.75s31.1,18.48,44,8.51l107.46-92.53L1130.9,784.7Z" transform="translate(-199.51 -548.55)"/><ellipse class="cls-21" cx="872.42" cy="629.13" rx="10.04" ry="13.35" transform="translate(-278.46 -421.23) rotate(-7.99)"/><ellipse class="cls-42" cx="869.32" cy="629.56" rx="6.92" ry="10.23" transform="translate(-278.55 -421.65) rotate(-7.99)"/><path class="cls-56" d="M876.14,638.49s12.87,24.23,50,21.3" transform="translate(-199.51 -548.55)"/><ellipse class="cls-42" cx="727.82" cy="110.95" rx="6.95" ry="3.71"/><path class="cls-21" d="M873.68,618.44s4.2-50.92,48.82-63.55a21.73,21.73,0,0,0-17.7-3.23s-34.59,17.87-36.71,65.05Z" transform="translate(-199.51 -548.55)"/><polygon class="cls-40" points="1919.72 356.77 1794.16 440.24 1668.61 356.77 1919.72 356.77"/><polygon class="cls-40" points="1919.72 356.77 1919.72 523.71 1668.61 523.71 1668.61 356.77 1794.16 440.24 1919.72 356.77"/><polygon class="cls-40" points="1668.61 523.71 1794.16 440.24 1919.72 523.71 1668.61 523.71"/><polygon class="cls-37" points="1929.32 356.77 1803.75 440.24 1678.21 356.77 1929.32 356.77"/><polygon class="cls-22" points="1929.32 356.77 1929.32 523.71 1678.21 523.71 1678.21 356.77 1803.75 440.24 1929.32 356.77"/><polygon class="cls-37" points="1678.21 523.71 1803.75 440.24 1929.32 523.71 1678.21 523.71"/><path class="cls-2" d="M2148.69,905.32a19.85,19.85,0,1,1-19.86-19.86A19.69,19.69,0,0,1,2148.69,905.32Z" transform="translate(-199.51 -548.55)"/><path class="cls-4" d="M2148.69,905.32a19.69,19.69,0,0,1-5.07,13.25,19.88,19.88,0,0,1-30.38-16.87,14.09,14.09,0,0,1,15.59-16.24A19.86,19.86,0,0,1,2148.69,905.32Z" transform="translate(-199.51 -548.55)"/><path class="cls-8" d="M2090.22,1359.73c-4.58-6-20.35-19.45-30.33-18.26-8.67,1-14.33,15.07-23.07,15.43-5.8.24-17.81-5.26-26.5-16.65,0,0-18.61-20-17.38-29.73s17.18-11.27,17.71-24.47c.27-7.07-10.49-25.56-19.27-31.69a9.29,9.29,0,0,0-10.73.06c-8.08,5.81-24.71,20.81-22.7,44.72,2.66,31.46,30.39,57.15,30.39,57.15s27.35,30.82,51.74,35.68c26.62,5.31,41.48-5.72,48.91-14.86S2094.8,1365.71,2090.22,1359.73Z" transform="translate(-199.51 -548.55)"/><path class="cls-7" d="M2042,1169.53l14.29-14.18a19.46,19.46,0,0,0,1.45-1.54,13.87,13.87,0,0,0,1.26-1.73,9.17,9.17,0,0,0,.88-1.91,6.77,6.77,0,0,0,.33-2.12,5.62,5.62,0,0,0-.48-2.36,5.22,5.22,0,0,0-1.31-1.79,6,6,0,0,0-2-1.13,7,7,0,0,0-2.39-.4,6.44,6.44,0,0,0-4.32,1.46,6.56,6.56,0,0,0-2.16,4l-5.23-.45a11,11,0,0,1,1.38-4.1,9.92,9.92,0,0,1,2.56-2.89,10.58,10.58,0,0,1,3.52-1.71,16,16,0,0,1,4.3-.55,14.9,14.9,0,0,1,4.35.62,10.49,10.49,0,0,1,3.57,1.87,8.66,8.66,0,0,1,2.42,3.06,10,10,0,0,1,.88,4.3,10.15,10.15,0,0,1-.53,3.3,14,14,0,0,1-1.38,2.89,18.48,18.48,0,0,1-2,2.56c-.74.81-1.51,1.6-2.32,2.37l-11.72,11.31h17.91v4.23H2042Z" transform="translate(-199.51 -548.55)"/><path class="cls-7" d="M2084.59,1166.81H2069.4v-4.93l14.18-22.83h5.84v23.54h5v4.22h-5v7.85h-4.83Zm0-22h-.1l-10.86,17.81h11Z" transform="translate(-199.51 -548.55)"/><path class="cls-7" d="M2099.17,1176.87l-3.52-1.31,16.1-38.72,3.47,1.31Z" transform="translate(-199.51 -548.55)"/><path class="cls-7" d="M2134.58,1143.28h-17.25v-4.23h22.38v4.12l-14.19,31.49h-5.43Z" transform="translate(-199.51 -548.55)"/><path class="cls-7" d="M2062.2,1215.58a65.35,65.35,0,1,1,66.39-5.36l-2.15-3a61.62,61.62,0,1,0-62.6,5Z" transform="translate(-199.51 -548.55)"/><polygon class="cls-7" points="1921.69 664.41 1939.68 662.63 1929.14 647.94 1921.69 664.41"/><circle class="cls-2" cx="1988.37" cy="667.56" r="79.15" transform="translate(-89.17 1052.97) rotate(-45)"/><circle class="cls-4" cx="1998.98" cy="667.56" r="79.15" transform="translate(-86.06 1060.47) rotate(-45)"/><path class="cls-8" d="M2040.64,686.43c-2.76-3.61-12.28-11.74-18.31-11-5.23.63-8.65,9.1-13.92,9.32-3.51.14-10.76-3.18-16-10.06,0,0-11.23-12.08-10.49-17.95s10.38-6.8,10.69-14.77c.17-4.27-6.33-15.43-11.63-19.13a5.61,5.61,0,0,0-6.48,0c-4.88,3.51-14.92,12.57-13.7,27,1.6,19,18.34,34.5,18.34,34.5s16.52,18.6,31.24,21.54c16.07,3.21,25-3.45,29.53-9S2043.41,690,2040.64,686.43Z" transform="translate(-199.51 -548.55)"/></svg>