<svg id="Layer_1" data-name="Layer 1" xmlns="http://www.w3.org/2000/svg" xmlns:xlink="http://www.w3.org/1999/xlink" viewBox="0 0 420.82 420.28"><defs><style>.cls-1{fill:#b4b4b4;}.cls-2{fill:url(#Blue);}.cls-3{fill:url(#Opal);}.cls-4{fill:url(#Blue-2);}.cls-5{fill:url(#Orange_Yellow);}.cls-6{fill:url(#Orange_Yellow-2);}.cls-7{fill:url(#Orange_Yellow-3);}</style><linearGradient id="Blue" x1="4.59" y1="215.01" x2="425.41" y2="215.01" gradientUnits="userSpaceOnUse"><stop offset="0" stop-color="#2bc4f3"/><stop offset="0.5" stop-color="#00aeee"/><stop offset="1" stop-color="#0095da"/></linearGradient><linearGradient id="Opal" x1="153.67" y1="31.27" x2="211.22" y2="31.27" gradientUnits="userSpaceOnUse"><stop offset="0" stop-color="#fdebf3"/><stop offset="0.11" stop-color="#f7eaf3"/><stop offset="0.23" stop-color="#faf1f2"/><stop offset="0.35" stop-color="#fffef0"/><stop offset="0.48" stop-color="#fbfbf0"/><stop offset="0.6" stop-color="#f0f3f2"/><stop offset="0.71" stop-color="#dde5f4"/><stop offset="0.71" stop-color="#dce4f4"/><stop offset="1" stop-color="#fee9df"/></linearGradient><linearGradient id="Blue-2" x1="154.41" y1="39.16" x2="163.3" y2="39.16" xlink:href="#Blue"/><linearGradient id="Orange_Yellow" x1="122.64" y1="214.96" x2="168.89" y2="214.96" gradientUnits="userSpaceOnUse"><stop offset="0" stop-color="#fff33b"/><stop offset="0.04" stop-color="#fee72e"/><stop offset="0.12" stop-color="#fed51b"/><stop offset="0.2" stop-color="#fdca10"/><stop offset="0.28" stop-color="#fdc70c"/><stop offset="0.67" stop-color="#f3903f"/><stop offset="0.89" stop-color="#ed683c"/><stop offset="1" stop-color="#e93e3a"/></linearGradient><linearGradient id="Orange_Yellow-2" x1="177" y1="215.58" x2="219.76" y2="215.58" xlink:href="#Orange_Yellow"/><linearGradient id="Orange_Yellow-3" x1="230" y1="215" x2="307.37" y2="215" xlink:href="#Orange_Yellow"/></defs><polygon class="cls-1" points="9.3 271.32 35.64 262.75 9.3 271.32 9.3 271.32"/><path class="cls-2" d="M331.05,98.49l16.79,19.59c23.69,38.59,28.07,52.06,31.56,96.58-4.23,54.48-24.85,98.08-59.62,126.69-33.61,27.64-78.64,40.1-130.2,36l-12.28-2.85c-13-3-13.25-3.11-25.59-8.31l-11.08-4.64c-36.43-22.28-47.32-31.51-72-71.7C51.28,248,49.07,234.05,52.59,189.54,66.3,132.08,89.24,90.53,160.71,60L146.49,16.31c-43.62,18.25-50.58,24.26-72.26,43L66,66.38l-4.82,5.71c-23,26.82-27.15,31.65-46.38,78.13-1.38,5.92-2.62,11-3.63,15C7,182,7,182,5.79,199.23c-.3,4.19-.68,9.37-1.2,16L5.31,224c2.36,31.46,3,39.92,22.35,86.71,35.11,57.2,56.39,70.12,85.83,88l6.25,3.8c95.08,39.3,152.43,23.36,219.18-17.56,48.4-41.4,56.33-57.15,76.29-105.31,1.38-5.93,2.62-11,3.62-15.06,4.13-16.75,4.13-16.75,5.38-34,.3-4.18.68-9.36,1.2-16l-2.63-32.93c-1.47-5.89-2.65-11-3.6-15-3.93-16.79-3.93-16.79-10.63-32.69-1.61-3.81-3.59-8.52-6.09-14.56C362.11,53.69,318.84,13.71,218.78,4.88V50.81l2.14.15C245.91,52.68,280.14,55,331.05,98.49Z" transform="translate(-4.59 -4.86)"/><path class="cls-3" d="M202.72,51.46l8.5-.64v-46l-11.92.89C182.08,7,182.08,7,165.33,11.12c-3.2.79-7,1.72-11.66,2.84L159,30.36l8.89,27.32,8.27-2C189.14,52.46,189.39,52.42,202.72,51.46Z" transform="translate(-4.59 -4.86)"/><polygon class="cls-4" points="163.29 52.82 163.3 52.82 154.41 25.5 163.29 52.82"/><path class="cls-5" d="M128.46,242.84a39.59,39.59,0,0,0,7.51-.32,26,26,0,0,0,14.39-6.67c4.56-4.13,7.84-10.16,9.11-18.31h-.32A20.17,20.17,0,0,1,143,225c-12.39,0-20.32-9.32-20.32-21.07,0-13,9.41-24.44,23.49-24.44s22.76,11.43,22.76,29c0,15.13-5.08,25.71-11.86,32.28a34.37,34.37,0,0,1-20,9.21,43.66,43.66,0,0,1-8.57.52Zm3.38-39.59c0,8.57,5.19,14.61,13.23,14.61,6.25,0,11.12-3.07,13.55-7.2a6.16,6.16,0,0,0,.85-3.39c0-11.75-4.34-20.74-14.08-20.74C137.45,186.53,131.84,193.51,131.84,203.25Z" transform="translate(-4.59 -4.86)"/><path class="cls-6" d="M218.39,188.43H192.14l-2.65,17.67a38.47,38.47,0,0,1,5.61-.42,29.11,29.11,0,0,1,14.82,3.71c5.4,3.07,9.84,9,9.84,17.67,0,13.44-10.69,23.5-25.61,23.5-7.52,0-13.87-2.12-17.15-4.23l2.33-7.1A30.86,30.86,0,0,0,194,243c8.79,0,16.3-5.71,16.3-14.92-.1-8.89-6-15.24-19.79-15.24a72.17,72.17,0,0,0-9.52.74l4.44-33h32.92Z" transform="translate(-4.59 -4.86)"/><path class="cls-7" d="M262.6,200c0,14.5-7.62,21.7-16.51,21.7-8.58,0-16-6.88-16.09-20.75s7.51-21.48,16.62-21.48C256.25,179.44,262.6,186.85,262.6,200Zm-25.19.64c-.21,8.78,3.07,15.45,8.89,15.45,6.13,0,8.89-6.57,8.89-15.67,0-8.36-2.44-15.34-8.89-15.34C240.48,185.05,237.41,191.92,237.41,200.61Zm8,49.95,40.43-71.12h5.93l-40.43,71.12Zm61.92-22.12c0,14.5-7.62,21.69-16.41,21.69-8.57,0-16-6.87-16.09-20.63s7.52-21.59,16.62-21.59C301.12,207.91,307.37,215.31,307.37,228.44Zm-25.19.63c-.11,8.79,3.28,15.46,9,15.46,6.14,0,8.89-6.56,8.89-15.67,0-8.36-2.43-15.35-8.89-15.35C285.35,213.51,282.18,220.4,282.18,229.07Z" transform="translate(-4.59 -4.86)"/></svg>