<svg id="Layer_1" data-name="Layer 1" xmlns="http://www.w3.org/2000/svg" xmlns:xlink="http://www.w3.org/1999/xlink" viewBox="0 0 420.52 419.12"><defs><style>.cls-1{fill:url(#Blue);}.cls-2{fill:url(#Opal);}.cls-3{fill:#b4b4b4;}.cls-4{fill:url(#Gold_Radial);}.cls-5{fill:url(#Gold_Radial-2);}.cls-6{fill:url(#Gold_Radial-3);}</style><linearGradient id="Blue" x1="16.22" y1="215" x2="425.26" y2="215" gradientUnits="userSpaceOnUse"><stop offset="0" stop-color="#2bc4f3"/><stop offset="0.5" stop-color="#00aeee"/><stop offset="1" stop-color="#0095da"/></linearGradient><linearGradient id="Opal" x1="4.74" y1="141.16" x2="211.07" y2="141.16" gradientUnits="userSpaceOnUse"><stop offset="0" stop-color="#fdebf3"/><stop offset="0.11" stop-color="#f7eaf3"/><stop offset="0.23" stop-color="#faf1f2"/><stop offset="0.35" stop-color="#fffef0"/><stop offset="0.48" stop-color="#fbfbf0"/><stop offset="0.6" stop-color="#f0f3f2"/><stop offset="0.71" stop-color="#dde5f4"/><stop offset="0.71" stop-color="#dce4f4"/><stop offset="1" stop-color="#fee9df"/></linearGradient><radialGradient id="Gold_Radial" cx="145.65" cy="215" r="30.04" gradientUnits="userSpaceOnUse"><stop offset="0" stop-color="#fffbcc"/><stop offset="0.11" stop-color="#fbf2bb"/><stop offset="0.34" stop-color="#f0d98e"/><stop offset="0.37" stop-color="#eed688"/><stop offset="0.69" stop-color="#ebbb10"/><stop offset="1" stop-color="#c3922e"/></radialGradient><radialGradient id="Gold_Radial-2" cx="199.92" r="30.08" xlink:href="#Gold_Radial"/><radialGradient id="Gold_Radial-3" cx="268.89" r="37.15" xlink:href="#Gold_Radial"/></defs><path class="cls-1" d="M347.69,118.66l13.52,22,4.89,11.59c5.2,12.33,5.27,12.57,8.32,25.6l2.77,11.7,1.07,12.56c1.13,13.32,1.13,13.57,0,26.89l-1,12c-9.93,41.52-17.82,66.66-65.54,107.39-36.37,22.35-49.54,27.87-96.59,31.59-54-4.23-75.61-13.19-116.33-47.94-25.74-30.09-28.48-36.76-37.56-58.9l-1.34-3.25-43.7,14.21,1.48,3.6c13.46,32.71,15.89,38.6,48.58,76.87,45.69,39,85.74,66.24,181.5,58.82l32.37-7.8c77.91-32.29,96.54-62.68,122.31-104.74l2.78-6.82c13.62-32.66,16.07-38.55,20-88.74-6.65-84.08-29.8-111.18-61.84-148.69-4.63-3.9-8.56-7.3-11.73-10-13.07-11.3-13.07-11.3-27.81-20.21-3.6-2.18-8.06-4.87-13.76-8.37L279.59,15.32c-5.94-1.37-11-2.62-15.07-3.62-16.73-4.13-16.73-4.13-34-5.37l-11.93-.89v46C255.42,54.35,297,59.3,347.69,118.66Z" transform="translate(-4.74 -5.44)"/><path class="cls-2" d="M58.41,165l4.75-11.67c5-12.38,5.16-12.61,12.21-24l6.32-10.22c28.12-33,38.22-41.72,82.09-59.87l12.22-3C189,53,189.24,53,202.57,52l8.5-.64V5.46C150.49,10.51,134.5,18.8,91.19,45.34c-5,4.23-8.87,7.52-12,10.19C66,66.65,66,66.65,54.85,79.84,52.15,83.05,48.79,87,44.46,92.1l-4.38,7.2C22.47,127.84,18.8,133.79,7,182.9l-.55,7.37c-2.76,34.31-3.33,41.29,7.45,86.59l26.34-8.57,17.37-5.65C48.4,223.71,47.66,209.92,58.41,165Z" transform="translate(-4.74 -5.44)"/><polygon class="cls-3" points="9.15 270.74 35.49 262.18 9.15 270.74 9.15 270.74"/><path class="cls-4" d="M122.42,231.93c0-8.68,5.19-14.82,13.66-18.42l-.11-.31c-7.62-3.6-10.9-9.52-10.9-15.46,0-10.89,9.21-18.3,21.27-18.3,13.34,0,20,8.36,20,16.93,0,5.82-2.86,12.07-11.33,16.09v.32c8.58,3.38,13.87,9.42,13.87,17.78,0,12-10.27,20-23.39,20C131.1,250.56,122.42,242,122.42,231.93Zm37.05-.42c0-8.36-5.82-12.38-15.14-15-8,2.33-12.38,7.62-12.38,14.18-.32,7,5,13.13,13.76,13.13C154.07,243.79,159.47,238.6,159.47,231.51Zm-25.61-34.4c0,6.88,5.18,10.59,13.12,12.7,5.92-2,10.48-6.24,10.48-12.49,0-5.5-3.28-11.22-11.65-11.22C138.09,186.1,133.86,191.19,133.86,197.11Z" transform="translate(-4.74 -5.44)"/><path class="cls-5" d="M223.25,214.26c0,23.39-8.67,36.3-23.91,36.3-13.45,0-22.55-12.59-22.76-35.35,0-23.07,9.95-35.77,23.92-35.77C215,179.44,223.25,192.35,223.25,214.26Zm-37.36,1.05c0,17.89,5.51,28.05,14,28.05,9.53,0,14.08-11.11,14.08-28.68,0-16.94-4.34-28.05-14-28.05C191.82,186.63,185.89,196.58,185.89,215.31Z" transform="translate(-4.74 -5.44)"/><path class="cls-6" d="M262.81,200c0,14.5-7.62,21.7-16.51,21.7-8.58,0-16-6.88-16.09-20.75s7.51-21.48,16.62-21.48C256.46,179.44,262.81,186.85,262.81,200Zm-25.19.64c-.21,8.78,3.07,15.45,8.89,15.45,6.14,0,8.89-6.57,8.89-15.67,0-8.36-2.44-15.34-8.89-15.34C240.69,185.05,237.62,191.92,237.62,200.61Zm8,49.95,40.43-71.12H292l-40.43,71.12Zm61.92-22.12c0,14.5-7.62,21.69-16.41,21.69-8.57,0-16-6.87-16.08-20.63s7.51-21.59,16.61-21.59C301.33,207.91,307.58,215.31,307.58,228.44Zm-25.19.63c-.11,8.79,3.28,15.45,9,15.45,6.14,0,8.9-6.55,8.9-15.66,0-8.36-2.44-15.35-8.9-15.35C285.56,213.51,282.39,220.4,282.39,229.07Z" transform="translate(-4.74 -5.44)"/></svg>