<svg id="Layer_1" data-name="Layer 1" xmlns="http://www.w3.org/2000/svg" viewBox="0 0 92 57.65"><defs><style>.cls-1{fill:#fff;}</style></defs><path class="cls-1" d="M49.61,38.68A35.05,35.05,0,0,1,57,39.4a16,16,0,0,1,5.71,2.34,11,11,0,0,1,3.7,4.31,15.26,15.26,0,0,1,1.29,6.64,12.35,12.35,0,0,1-1.94,7.13A14,14,0,0,1,60,64.49a13.49,13.49,0,0,1,7.77,5.27,15.69,15.69,0,0,1,2.56,9.08,15.66,15.66,0,0,1-1.65,7.42,14.42,14.42,0,0,1-4.47,5.13,19.84,19.84,0,0,1-6.44,2.93,28.87,28.87,0,0,1-7.4,1H22.93V38.68ZM48,61.55A9.06,9.06,0,0,0,53.48,60c1.43-1.05,2.13-2.77,2.13-5.15a6.73,6.73,0,0,0-.7-3.24,5.12,5.12,0,0,0-1.92-2,7.66,7.66,0,0,0-2.74-1A16.89,16.89,0,0,0,47,48.32H35.39V61.55Zm.69,24.09a15.79,15.79,0,0,0,3.5-.36,8.19,8.19,0,0,0,2.93-1.2,5.93,5.93,0,0,0,2-2.26,7.88,7.88,0,0,0,.74-3.67c0-2.91-.82-5-2.45-6.24a10.53,10.53,0,0,0-6.5-1.86H35.39V85.64Z" transform="translate(-22.93 -38.68)"/><path class="cls-1" d="M88.07,85.45c1.69,1.64,4.12,2.47,7.28,2.47a10,10,0,0,0,5.88-1.72,7.26,7.26,0,0,0,3-3.63h9.91c-1.6,4.93-4,8.46-7.31,10.57A21.26,21.26,0,0,1,95,96.33a23.62,23.62,0,0,1-8.74-1.55,18.6,18.6,0,0,1-6.61-4.4,20.15,20.15,0,0,1-4.16-6.83A25,25,0,0,1,74,74.81a24.09,24.09,0,0,1,1.51-8.57,20.05,20.05,0,0,1,4.29-6.86,20.29,20.29,0,0,1,6.64-4.57A21.3,21.3,0,0,1,95,53.14a19.39,19.39,0,0,1,9.11,2,18.11,18.11,0,0,1,6.39,5.43,22.17,22.17,0,0,1,3.6,7.77,28.71,28.71,0,0,1,.78,9.12H85.29C85.29,80.73,86.38,83.8,88.07,85.45ZM101,63.92c-1.33-1.48-3.6-2.28-6.36-2.28a9.63,9.63,0,0,0-4.48.92,8.89,8.89,0,0,0-2.85,2.26A8,8,0,0,0,85.8,67.7a12.65,12.65,0,0,0-.51,2.7H103.6A10.91,10.91,0,0,0,101,63.92Z" transform="translate(-22.93 -38.68)"/><rect class="cls-1" x="60.06" y="3.79" width="22.94" height="5.59"/></svg>