<svg id="Layer_1" data-name="Layer 1" xmlns="http://www.w3.org/2000/svg" viewBox="0 0 85 85"><defs><style>.cls-1{fill:#fff;}</style></defs><path class="cls-1" d="M67.93,32.83c11.34,0,12.69.05,17.17.25A23.64,23.64,0,0,1,93,34.54a14.07,14.07,0,0,1,8.07,8.07,23.64,23.64,0,0,1,1.46,7.89c.2,4.48.25,5.83.25,17.18s0,12.69-.25,17.17a23.64,23.64,0,0,1-1.46,7.89A14.07,14.07,0,0,1,93,100.81a23.64,23.64,0,0,1-7.89,1.46c-4.48.2-5.83.25-17.17.25s-12.7,0-17.18-.25a23.64,23.64,0,0,1-7.89-1.46,14.07,14.07,0,0,1-8.07-8.07,23.64,23.64,0,0,1-1.46-7.89c-.2-4.48-.25-5.83-.25-17.17s.05-12.7.25-17.18a23.64,23.64,0,0,1,1.46-7.89,14.07,14.07,0,0,1,8.07-8.07,23.64,23.64,0,0,1,7.89-1.46c4.48-.2,5.83-.25,17.18-.25m0-7.65c-11.55,0-13,0-17.53.25a31.25,31.25,0,0,0-10.31,2A21.7,21.7,0,0,0,27.66,39.84a31.25,31.25,0,0,0-2,10.31c-.21,4.54-.25,6-.25,17.53s0,13,.25,17.52a31.25,31.25,0,0,0,2,10.31,21.7,21.7,0,0,0,12.43,12.43,31,31,0,0,0,10.31,2c4.54.21,6,.26,17.53.26s13-.05,17.52-.26a31,31,0,0,0,10.31-2,21.7,21.7,0,0,0,12.43-12.43,31.25,31.25,0,0,0,2-10.31c.21-4.53.26-6,.26-17.52s-.05-13-.26-17.53a31.25,31.25,0,0,0-2-10.31A21.7,21.7,0,0,0,95.76,27.41a31.25,31.25,0,0,0-10.31-2c-4.54-.21-6-.25-17.52-.25Z" transform="translate(-25.43 -25.18)"/><path class="cls-1" d="M67.93,45.85A21.83,21.83,0,1,0,89.75,67.68,21.83,21.83,0,0,0,67.93,45.85Zm0,36A14.17,14.17,0,1,1,82.09,67.68,14.16,14.16,0,0,1,67.93,81.84Z" transform="translate(-25.43 -25.18)"/><circle class="cls-1" cx="65.19" cy="19.81" r="5.1"/></svg>