<svg id="Layer_1" data-name="Layer 1" xmlns="http://www.w3.org/2000/svg" viewBox="0 0 80 79.78"><defs><style>.cls-1{fill:#fff;}</style></defs><path class="cls-1" d="M73.15,58.3c1.11-1.24,2-2.51,3.16-3.58a17.35,17.35,0,0,1,12.47-4.93,29.22,29.22,0,0,1,7.85,1c5.86,1.69,9.26,5.73,10.89,11.45A48.34,48.34,0,0,1,109,75.32c0,9.32,0,18.65,0,28,0,.88-.24,1.1-1.1,1.1q-7.22-.06-14.41,0c-.85,0-1-.26-1-1q0-13.32,0-26.62a23.78,23.78,0,0,0-.78-6.61c-1.15-4-4-6-8.17-5.79-5.69.3-8.66,3.12-9.38,8.91a32.31,32.31,0,0,0-.26,4.17c0,8.62,0,17.25,0,25.88,0,.86-.22,1.12-1.1,1.11q-7.24-.06-14.51,0c-.78,0-1-.21-1-1q0-25.64,0-51.25c0-.85.27-1,1.07-1,4.6,0,9.19,0,13.79,0,.84,0,1.06.26,1,1.06C73.12,54.22,73.15,56.26,73.15,58.3Z" transform="translate(-28.97 -24.61)"/><path class="cls-1" d="M46.83,77.82c0,8.46,0,16.91,0,25.36,0,.94-.23,1.22-1.2,1.21-4.81,0-9.61,0-14.41,0-.77,0-1-.18-1-1q0-25.66,0-51.33c0-.71.18-1,.93-1,4.87,0,9.74,0,14.61,0,.94,0,1.07.35,1.06,1.15Q46.81,65,46.83,77.82Z" transform="translate(-28.97 -24.61)"/><path class="cls-1" d="M48.15,34.15a9.59,9.59,0,1,1-9.57-9.54A9.61,9.61,0,0,1,48.15,34.15Z" transform="translate(-28.97 -24.61)"/></svg>